<?xml version="1.0" standalone="no"?>
<!DOCTYPE svg PUBLIC "-//W3C//DTD SVG 20010904//EN"
 "http://www.w3.org/TR/2001/REC-SVG-20010904/DTD/svg10.dtd">
<svg version="1.0" xmlns="http://www.w3.org/2000/svg"
 width="550.000000pt" height="550.000000pt" viewBox="0 0 550.000000 550.000000"
 preserveAspectRatio="xMidYMid meet">
<metadata>
Created by potrace 1.14, written by Peter Selinger 2001-2017
</metadata>
<g transform="translate(0.000000,550.000000) scale(0.100000,-0.100000)"
fill="#000000" stroke="none">
<path d="M3477 4954 c-3 -3 -421 -6 -929 -6 -1011 0 -989 1 -1117 -60 -124
-59 -208 -172 -230 -309 -7 -40 -11 -362 -11 -877 l0 -812 -23 4 c-54 12 -206
16 -250 7 -59 -11 -104 -51 -141 -126 -35 -72 -59 -218 -54 -331 3 -78 8 -100
37 -158 18 -37 60 -96 94 -132 51 -56 59 -68 49 -82 -80 -113 -142 -277 -142
-378 0 -113 71 -195 294 -339 l136 -87 0 -118 c0 -91 4 -130 20 -175 46 -134
135 -226 261 -270 24 -9 143 -32 264 -51 279 -43 379 -63 645 -129 118 -29
283 -65 365 -80 83 -15 203 -42 267 -60 64 -19 166 -41 228 -49 135 -19 409
-20 570 -2 l115 13 165 -105 c91 -58 172 -107 181 -109 20 -6 78 12 391 121
282 99 325 117 367 152 l31 25 -153 113 c-83 61 -246 183 -362 269 -115 86
-214 157 -220 157 -6 0 -7 -3 0 -8 25 -18 7 -72 -24 -72 -6 0 -11 -7 -11 -15
0 -10 11 -15 35 -15 34 0 35 -1 35 -40 0 -33 -3 -40 -20 -40 -13 0 -20 -7 -20
-20 0 -18 -7 -20 -60 -20 l-60 0 0 -40 0 -40 -40 0 c-33 0 -40 -3 -40 -20 0
-13 -7 -20 -20 -20 -13 0 -20 -7 -20 -20 0 -17 -7 -20 -40 -20 -33 0 -40 3
-40 20 0 17 -7 20 -40 20 -38 0 -40 -2 -40 -30 0 -23 -4 -30 -20 -30 -11 0
-20 -4 -20 -10 0 -5 9 -10 20 -10 11 0 20 -4 20 -9 0 -14 -82 -24 -120 -16
-23 5 -35 3 -41 -6 -8 -12 -10 -12 -18 0 -5 7 -13 11 -19 7 -15 -9 -42 4 -42
20 0 8 -9 14 -20 14 -15 0 -20 -7 -20 -25 l0 -25 -120 0 c-116 0 -120 -1 -120
-21 0 -20 -4 -21 -52 -15 -29 4 -60 7 -68 7 -61 3 -456 42 -545 55 -102 14
-565 111 -574 120 -12 11 97 0 116 -12 20 -12 22 -12 17 1 -9 21 -46 29 -112
22 -41 -4 -86 1 -157 18 l-100 23 78 -3 c60 -3 77 -1 77 10 0 8 17 17 43 21
l42 8 -45 7 c-44 6 -44 6 -10 9 19 2 -17 7 -80 10 -106 6 1135 16 1295 11 102
-4 270 16 347 41 81 26 158 84 219 164 82 109 81 106 69 180 -6 37 -26 106
-44 154 -52 133 -86 281 -86 370 0 74 -1 77 -35 110 -19 18 -32 37 -29 42 5 7
-10 12 -28 9 -5 0 -8 3 -8 9 0 5 -7 10 -16 10 -9 0 -44 24 -78 54 -61 53 -61
54 -64 112 -2 45 0 56 9 44 9 -13 10 -12 5 3 -6 19 12 67 26 67 4 0 8 9 8 20
0 11 5 20 10 20 13 0 13 41 -1 60 -10 13 -10 13 -6 -1 3 -9 0 -16 -7 -16 -6 0
-12 8 -12 18 0 19 34 18 47 -3 8 -13 39 -21 39 -10 0 7 -43 55 -136 154 -22
23 -66 77 -98 118 -31 41 -88 105 -127 142 -62 60 -69 71 -69 105 1 21 7 49
15 63 8 14 14 31 15 38 0 22 -38 13 -59 -14 -20 -25 -21 -25 -89 -15 -38 6
-88 17 -111 26 -57 20 -163 84 -156 95 3 5 0 12 -6 16 -8 4 -9 3 -5 -4 11 -18
-10 -14 -25 5 -9 11 -10 14 -2 9 9 -5 11 -2 6 9 -4 12 -8 13 -13 5 -4 -7 -13
-9 -19 -5 -9 5 -9 10 -1 20 8 10 8 15 0 20 -6 4 -14 4 -17 1 -4 -3 0 -6 7 -6
10 0 11 -3 4 -10 -18 -18 -204 58 -204 83 0 8 3 8 9 -2 5 -8 14 -10 22 -6 8 5
11 4 6 0 -4 -5 10 -17 30 -26 44 -21 62 -24 46 -8 -9 9 -6 17 10 31 12 11 17
17 11 14 -6 -3 -21 5 -34 19 -17 18 -25 21 -35 12 -10 -9 -10 -16 -2 -27 9
-12 9 -13 -3 -3 -17 16 -22 43 -7 43 11 0 0 15 -11 15 -4 0 -12 4 -18 8 -7 4
-24 0 -40 -8 -15 -7 -32 -11 -37 -8 -4 3 -3 -4 5 -16 7 -12 18 -21 25 -21 7 0
13 -5 13 -10 0 -7 -6 -7 -20 0 -48 26 -68 131 -30 165 24 22 124 34 196 23 51
-8 86 -19 289 -93 l100 -36 200 5 c188 5 204 4 270 -17 71 -23 162 -85 247
-170 21 -21 82 -63 136 -94 197 -113 283 -189 412 -363 132 -178 208 -361 254
-609 20 -106 58 -210 96 -265 45 -66 128 -136 223 -189 47 -26 99 -58 115 -72
36 -30 42 -31 35 -5 -8 29 -49 67 -138 125 -44 29 -96 68 -116 86 -19 19 -28
28 -19 21 9 -6 20 -9 25 -5 4 5 6 3 2 -2 -3 -6 5 -15 17 -21 19 -9 25 -7 35 7
9 16 6 21 -17 34 -15 9 -18 13 -7 10 11 -4 58 -17 105 -29 95 -26 155 -49 164
-64 3 -5 6 -207 6 -449 1 -464 2 -445 -45 -578 -4 -13 6 -6 28 17 21 24 42 64
57 110 24 71 24 83 28 500 l3 428 -26 24 c-37 34 -97 52 -260 77 -77 11 -143
23 -147 25 -5 3 -8 13 -8 23 0 9 -20 46 -45 81 -25 35 -45 74 -45 87 0 13 -9
67 -21 120 -85 393 -323 730 -636 901 l-68 37 -5 845 -5 845 -32 67 c-44 93
-112 159 -215 208 -99 47 -229 75 -251 54z m119 -65 c137 -27 246 -111 312
-241 29 -60 32 -73 32 -159 l0 -94 -22 34 -22 34 -10 -34 -9 -34 -7 33 c-4 18
-11 36 -15 40 -4 4 -4 -4 1 -18 9 -25 6 -1421 -3 -1430 -3 -3 -11 4 -19 14
-12 17 -14 130 -14 710 l0 691 -24 50 c-36 78 -143 160 -116 89 6 -14 10 -36
10 -50 0 -14 6 -24 15 -24 8 0 22 -12 32 -27 17 -25 18 -69 15 -677 -2 -358
-5 -653 -7 -655 -4 -3 -102 27 -118 36 -5 3 7 13 25 23 66 35 73 61 73 285 0
215 -4 233 -57 282 -43 40 -80 42 -543 34 -480 -8 -494 -10 -532 -67 -16 -25
-17 -47 -15 -201 2 -95 0 -173 -5 -173 -4 0 -17 7 -27 15 -17 13 -90 15 -476
15 -453 0 -456 0 -500 -22 -79 -41 -84 -55 -90 -251 -3 -95 -2 -187 3 -205 12
-46 62 -100 105 -112 25 -8 200 -10 524 -8 l487 3 30 29 c16 15 32 39 35 51 5
20 14 24 69 30 61 7 63 6 136 -39 92 -56 146 -75 247 -84 l78 -7 1 -37 c1 -20
6 -43 12 -50 6 -7 22 -54 37 -105 36 -126 187 -500 231 -572 41 -69 118 -142
210 -202 80 -52 80 -50 80 -314 0 -228 -7 -257 -83 -333 -58 -58 -89 -64 -332
-60 l-209 3 -30 29 c-17 17 -31 33 -31 38 0 4 88 8 195 8 208 0 241 6 251 47
9 33 -20 73 -54 74 -15 1 -121 0 -237 -1 -115 -1 -222 1 -236 5 -17 4 -32 20
-46 48 -30 61 -171 255 -195 268 -29 16 -141 12 -185 -6 -44 -19 -89 -58 -109
-98 -13 -23 -25 -95 -50 -275 -4 -35 -10 -45 -37 -57 -18 -8 -52 -29 -75 -47
l-44 -33 -306 -3 c-262 -2 -313 -1 -349 13 -69 27 -119 69 -147 127 l-26 53
-1 1551 c0 1397 1 1555 15 1589 9 21 18 36 20 34 2 -2 -1 -37 -6 -78 -6 -54
-5 -95 6 -156 28 -166 111 -282 252 -351 64 -32 85 -37 166 -41 111 -6 184 10
265 59 116 70 195 198 214 351 l12 87 208 0 c179 0 209 2 209 15 0 13 -30 15
-209 15 l-209 0 -7 33 c-11 47 -62 158 -86 183 -19 20 -19 22 -2 29 10 5 134
10 276 12 l259 4 34 45 c19 24 34 48 34 52 0 13 -642 -2 -674 -16 -25 -11 -33
-10 -60 6 -54 32 -128 53 -212 59 -67 5 -93 2 -147 -16 -70 -22 -120 -47 -157
-78 -55 -46 -110 -104 -110 -116 0 -8 -8 -21 -17 -28 -15 -11 -16 -11 -5 1 36
41 -15 40 -62 0 -19 -17 -45 -52 -58 -78 l-23 -47 0 -1575 0 -1576 35 -58 c46
-76 117 -140 186 -165 51 -20 77 -21 358 -21 329 0 342 2 417 56 l46 34 6 -38
c5 -26 19 -50 47 -77 l41 -40 206 -3 c138 -2 215 1 234 8 43 18 67 51 71 97
l3 42 59 -37 59 -37 240 -3 c275 -4 294 0 367 71 67 65 87 123 93 267 1 32 6
45 17 45 20 0 21 -64 4 -178 -18 -112 -40 -157 -114 -234 -51 -52 -67 -63
-112 -73 -38 -8 -334 -10 -1063 -8 l-1010 3 -50 27 c-55 29 -109 82 -146 143
l-24 40 -7 590 c-5 325 -7 1068 -5 1652 2 1106 2 1097 -38 1057 -13 -13 -15
-62 -16 -327 -1 -172 -5 -467 -9 -657 -5 -292 -6 -231 -8 401 l-2 746 35 70
c55 111 143 179 282 220 52 16 140 18 873 23 900 6 1090 4 1166 -11z m-1706
-372 c0 -21 0 -21 16 2 l16 22 21 -22 c13 -14 22 -18 25 -11 6 18 32 15 32 -3
0 -9 8 -18 18 -22 35 -12 43 -24 30 -41 -11 -13 -10 -14 9 -4 14 8 24 9 28 2
3 -6 -4 -14 -17 -19 l-23 -10 24 0 c20 -1 22 -5 17 -28 -5 -16 -3 -29 5 -33
16 -10 2 -30 -21 -30 -11 0 -23 11 -29 28 -10 27 -10 27 -10 2 2 -42 -3 -47
-10 -10 -4 22 -12 35 -21 35 -10 0 -14 -7 -11 -20 15 -84 -14 -132 -75 -122
-29 5 -54 -6 -54 -24 0 -3 18 -9 40 -13 28 -4 43 -13 48 -27 7 -19 9 -19 21
-5 9 11 10 16 2 16 -22 0 -10 21 31 50 35 25 38 30 19 30 -14 0 -21 5 -18 13
3 11 23 12 81 3 24 -3 33 -24 13 -31 -9 -4 -12 -15 -9 -31 3 -19 0 -24 -16
-24 -22 0 -36 25 -25 43 3 7 -6 1 -20 -12 -34 -31 -34 -41 -1 -41 16 0 24 -5
21 -12 -2 -7 -12 -12 -21 -11 -10 0 -15 -4 -13 -11 3 -7 -10 -20 -30 -28 -34
-16 -34 -16 -44 9 -5 13 -9 28 -9 32 0 3 -24 11 -52 17 -29 6 -60 12 -68 15
-9 2 -16 -4 -18 -19 -3 -20 -1 -21 22 -12 21 7 26 6 26 -5 0 -17 16 -20 25 -5
8 12 16 12 35 0 13 -9 13 -11 0 -20 -13 -9 -12 -12 4 -25 28 -21 11 -31 -27
-17 -44 16 -57 15 -57 -3 0 -21 -17 -19 -24 3 -4 11 -18 25 -31 32 -23 12 -35
40 -17 40 4 0 12 12 19 26 10 22 9 32 -3 57 -23 43 -11 112 25 148 51 50 124
58 215 23 36 -14 11 20 -34 45 l-43 24 -56 -19 c-31 -10 -71 -33 -90 -51 -31
-31 -34 -32 -47 -16 -15 21 -26 55 -14 48 4 -3 10 5 13 16 3 11 15 23 26 26
12 3 21 12 21 19 0 8 7 14 15 14 24 0 30 -4 29 -17 -1 -7 5 -13 13 -13 11 0
13 7 9 24 -4 18 -2 26 11 29 25 5 33 -1 33 -26z m-167 -120 c7 4 8 0 3 -13 -5
-10 -14 -41 -21 -69 l-13 -50 -2 40 c-1 22 -3 49 -5 60 -4 22 17 55 23 36 2
-6 9 -8 15 -4z m17 -208 c0 -5 -7 -9 -15 -9 -8 0 -15 7 -15 15 0 9 6 12 15 9
8 -4 15 -10 15 -15z m1877 -428 c68 -31 73 -50 73 -273 0 -175 -2 -196 -20
-226 -11 -18 -32 -37 -46 -42 -14 -6 -142 -10 -288 -10 l-263 0 -126 50 c-117
47 -243 80 -306 80 -26 0 -29 3 -35 53 -10 83 -7 271 5 305 25 73 60 78 619
80 319 1 348 0 387 -17z m-1081 -415 c18 -14 18 -16 -12 -48 -42 -44 -54 -69
-54 -114 0 -52 38 -104 116 -160 59 -41 64 -48 64 -82 0 -46 -31 -99 -66 -112
-15 -6 -214 -10 -496 -10 -520 0 -520 0 -559 64 -18 28 -19 48 -17 217 3 206
6 215 73 245 46 20 923 20 951 0z m-1386 -504 l45 -7 -2 -135 c-2 -74 -3 -234
-3 -356 l0 -221 -47 3 c-142 10 -194 11 -182 3 11 -7 10 -9 -4 -9 -9 0 -40 22
-68 49 -43 42 -49 52 -40 69 6 11 7 22 4 26 -3 3 -1 6 6 6 8 0 10 -8 6 -22 -5
-18 -4 -20 4 -8 6 8 11 10 11 4 0 -5 -5 -15 -12 -22 -9 -9 -9 -12 0 -12 7 0
12 -6 12 -13 0 -7 8 -17 18 -23 16 -10 18 -8 20 17 1 16 -2 29 -8 29 -5 0 -10
5 -10 11 0 6 -7 17 -16 26 -8 9 -13 22 -10 29 7 18 1 18 -18 -2 -9 -8 -16 -11
-16 -5 0 6 -5 11 -11 11 -5 0 -7 -4 -4 -10 3 -5 2 -10 -4 -10 -17 0 -50 108
-57 187 -8 96 10 220 40 289 24 53 63 89 106 97 39 7 190 6 240 -1z m-306
-593 c-3 -5 -10 -7 -15 -3 -5 3 -7 10 -3 15 3 5 10 7 15 3 5 -3 7 -10 3 -15z
m2825 -13 c-3 -3 -11 5 -18 17 -13 21 -12 21 5 5 10 -10 16 -20 13 -22z m-152
-153 c1 -22 -1 -24 -8 -10 -6 9 -7 22 -4 27 9 14 10 13 12 -17z m-2440 -34
c15 -5 47 -29 71 -52 l42 -41 0 -285 c0 -156 -2 -282 -4 -280 -3 2 -6 52 -7
109 -1 113 -11 149 -34 130 -7 -6 -11 -20 -8 -30 3 -12 0 -20 -6 -20 -7 0 -9
6 -5 13 6 10 4 10 -7 0 -7 -7 -28 -13 -46 -13 -26 0 -33 4 -33 20 0 17 -7 20
-40 20 -33 0 -40 3 -40 20 0 11 -7 20 -15 20 -12 0 -15 9 -13 38 2 30 0 37
-14 36 -10 -1 -16 2 -13 6 2 4 -11 7 -29 8 -32 1 -34 -1 -40 -39 -4 -22 -4
-44 -1 -50 4 -5 1 -9 -4 -9 -35 0 37 290 93 375 22 33 98 45 153 24z m2473
-34 c7 -9 8 -15 2 -15 -5 0 -12 7 -16 15 -3 8 -4 15 -2 15 2 0 9 -7 16 -15z
m-2685 -400 c0 -25 -1 -45 -2 -45 -4 0 -33 58 -33 65 0 3 4 4 9 1 5 -3 11 1
15 9 9 24 11 18 11 -30z m298 0 c4 -8 1 -17 -5 -21 -7 -4 -8 -3 -4 4 4 7 2 12
-4 12 -6 0 -8 5 -5 10 8 14 12 13 18 -5z m-170 -42 c-7 -2 -19 -2 -25 0 -7 3
-2 5 12 5 14 0 19 -2 13 -5z m1737 -3 c27 -15 155 -196 184 -261 13 -30 27
-70 30 -89 l6 -35 -133 1 c-72 0 -181 1 -241 2 l-108 2 5 33 c4 17 11 70 18
115 8 56 15 80 21 70 5 -8 6 -4 2 14 -7 33 10 90 36 113 41 37 140 56 180 35z
m-1809 -72 c15 -28 5 -21 -21 15 -15 20 -17 27 -6 18 9 -8 22 -23 27 -33z
m2033 -360 c27 -38 20 -95 -13 -129 l-29 -29 -192 0 c-161 0 -196 3 -220 17
-36 21 -54 55 -53 99 2 64 1 64 259 64 229 0 233 0 248 -22z m1446 -234 c0
-13 -31 0 -40 17 -11 20 -11 20 14 4 14 -10 26 -19 26 -21z m39 -23 c10 -7 7
-9 -12 -8 -14 1 -23 5 -20 10 6 9 15 9 32 -2z m-2446 -138 c-7 -2 -19 -2 -25
0 -7 3 -2 5 12 5 14 0 19 -2 13 -5z m-80 -40 c-7 -2 -19 -2 -25 0 -7 3 -2 5
12 5 14 0 19 -2 13 -5z m1374 -259 c-3 -3 -12 -4 -19 -1 -8 3 -5 6 6 6 11 1
17 -2 13 -5z m-110 -10 c-3 -3 -12 -4 -19 -1 -8 3 -5 6 6 6 11 1 17 -2 13 -5z
m-40 -10 c-3 -3 -12 -4 -19 -1 -8 3 -5 6 6 6 11 1 17 -2 13 -5z m50 -10 c-3
-3 -12 -4 -19 -1 -8 3 -5 6 6 6 11 1 17 -2 13 -5z m741 -1 c-10 -2 -26 -2 -35
0 -10 3 -2 5 17 5 19 0 27 -2 18 -5z m-95 -10 c-13 -2 -35 -2 -50 0 -16 2 -5
4 22 4 28 0 40 -2 28 -4z m-140 -10 c-18 -2 -48 -2 -65 0 -18 2 -4 4 32 4 36
0 50 -2 33 -4z m312 -13 c3 -6 -1 -7 -9 -4 -18 7 -21 14 -7 14 6 0 13 -4 16
-10z m29 -16 c3 -8 2 -12 -4 -9 -6 3 -10 10 -10 16 0 14 7 11 14 -7z"/>
<path d="M2780 4553 l-12 -33 -210 0 -209 0 3 -22 c3 -21 9 -23 73 -26 39 -1
135 1 215 5 l144 8 8 39 c11 52 3 70 -12 29z"/>
<path d="M2769 4418 c-2 -31 -2 -31 -6 -5 -4 26 -6 27 -51 22 -81 -8 -112 -17
-112 -30 0 -7 -6 -16 -12 -18 -7 -3 33 -6 90 -6 l102 -1 0 35 c0 44 -9 46 -11
3z"/>
<path d="M3692 4405 c0 -16 2 -22 5 -12 2 9 2 23 0 30 -3 6 -5 -1 -5 -18z"/>
<path d="M3335 4385 c0 -13 3 -21 8 -18 4 2 7 10 7 18 0 8 -3 16 -7 18 -5 3
-8 -5 -8 -18z"/>
<path d="M3230 4346 c0 -9 5 -16 10 -16 6 0 10 6 10 13 0 8 4 7 11 -3 9 -13
10 -13 6 0 -5 21 -37 26 -37 6z"/>
<path d="M3681 4314 c0 -11 3 -14 6 -6 3 7 2 16 -1 19 -3 4 -6 -2 -5 -13z"/>
<path d="M3315 4201 c-3 -5 -1 -12 5 -16 5 -3 10 1 10 9 0 18 -6 21 -15 7z"/>
<path d="M3559 4093 c-13 -16 -12 -17 4 -4 16 13 21 21 13 21 -2 0 -10 -8 -17
-17z"/>
<path d="M3455 4050 c-4 -6 -15 -8 -25 -5 -10 3 -21 2 -24 -3 -3 -6 2 -9 11
-8 9 0 18 -5 21 -13 3 -10 -1 -12 -17 -8 -14 3 -21 0 -21 -9 0 -9 -12 -14 -34
-14 -19 0 -38 -5 -42 -11 -10 -17 61 -2 106 21 19 11 31 19 26 20 -5 0 -1 9 9
20 10 11 13 20 7 20 -6 0 -14 -5 -17 -10z"/>
<path d="M3489 4039 c-23 -19 -23 -20 -2 -10 12 6 25 16 28 21 10 16 -1 12
-26 -11z"/>
<path d="M3065 3993 c10 -6 39 -17 67 -22 51 -11 176 -15 166 -5 -3 3 -30 5
-59 5 -60 0 -161 18 -154 28 2 4 -5 7 -16 7 -19 0 -19 -1 -4 -13z"/>
<path d="M2181 2604 c-43 -36 -54 -82 -50 -217 4 -125 16 -157 70 -184 32 -17
910 -19 940 -2 23 12 41 52 33 74 -9 23 -24 18 -24 -8 0 -47 3 -47 -475 -47
-502 0 -485 -2 -505 68 -13 48 -13 196 1 245 7 25 21 45 42 58 31 20 43 20
473 15 242 -3 449 -8 458 -12 14 -5 17 -3 14 12 -3 18 -21 19 -475 22 l-471 2
-31 -26z"/>
<path d="M3148 1963 c12 -2 30 -2 40 0 9 3 -1 5 -23 4 -22 0 -30 -2 -17 -4z"/>
<path d="M3065 1950 c-25 -11 1 -11 35 0 20 6 21 8 5 8 -11 0 -29 -3 -40 -8z"/>
<path d="M3275 1940 c27 -12 43 -12 25 0 -8 5 -22 9 -30 9 -10 0 -8 -3 5 -9z"/>
<path d="M3350 1907 c0 -2 15 -16 33 -33 l32 -29 -29 33 c-28 30 -36 37 -36
29z"/>
<path d="M3416 1827 c3 -10 9 -15 12 -12 3 3 0 11 -7 18 -10 9 -11 8 -5 -6z"/>
<path d="M3360 1801 c0 -6 4 -13 10 -16 6 -3 7 1 4 9 -7 18 -14 21 -14 7z"/>
<path d="M2896 1783 c-6 -14 -5 -15 5 -6 7 7 10 15 7 18 -3 3 -9 -2 -12 -12z"/>
<path d="M3437 1779 c4 -13 8 -18 11 -10 2 7 -1 18 -6 23 -8 8 -9 4 -5 -13z"/>
<path d="M3382 1725 c0 -16 2 -22 5 -12 2 9 2 23 0 30 -3 6 -5 -1 -5 -18z"/>
<path d="M3448 1710 c2 -22 6 -40 8 -40 2 0 4 18 4 40 0 22 -3 40 -8 40 -4 0
-6 -18 -4 -40z"/>
<path d="M3106 1726 c-21 -10 -24 -14 -13 -19 8 -3 23 3 33 14 20 22 19 22
-20 5z"/>
<path d="M3160 1730 c-9 -6 -10 -10 -3 -10 6 0 15 5 18 10 8 12 4 12 -15 0z"/>
<path d="M3383 1573 c0 -57 1 -103 3 -103 6 0 54 79 54 87 0 5 -12 -10 -25
-32 l-24 -39 -4 94 -3 95 -1 -102z"/>
<path d="M2872 1650 c0 -14 2 -19 5 -12 2 6 2 18 0 25 -3 6 -5 1 -5 -13z"/>
<path d="M2983 1600 c0 -36 2 -50 4 -32 2 17 2 47 0 65 -2 17 -4 3 -4 -33z"/>
<path d="M3452 1630 c0 -14 2 -19 5 -12 2 6 2 18 0 25 -3 6 -5 1 -5 -13z"/>
<path d="M2890 1550 c0 -5 5 -10 12 -10 6 0 9 -3 5 -6 -6 -6 19 -64 27 -64 2
0 6 7 10 15 3 8 0 14 -6 12 -6 -1 -15 13 -20 31 -8 29 -28 45 -28 22z"/>
<path d="M3102 1488 c-5 -5 -29 -9 -51 -6 -39 3 -55 -5 -28 -15 12 -4 38 -3
82 6 25 5 58 -11 50 -24 -4 -5 -1 -10 4 -10 6 -1 15 -2 21 -3 5 0 15 -7 22
-15 11 -12 10 -12 -2 -5 -35 20 -50 15 -50 -16 0 -25 -4 -30 -24 -30 -18 0
-25 6 -28 22 -3 26 -38 38 -38 14 0 -9 5 -16 12 -16 6 0 9 -2 6 -5 -8 -9 -38
6 -32 16 3 5 1 9 -5 9 -27 0 -16 -20 19 -34 46 -18 118 -21 173 -5 32 9 36 13
26 25 -7 8 -18 13 -26 10 -8 -3 -11 -2 -8 4 6 9 -34 36 -47 32 -5 -1 -8 2 -8
7 0 5 -13 19 -28 30 -21 14 -32 17 -40 9z"/>
<path d="M2977 1428 c15 -15 29 -26 31 -23 2 2 -3 12 -12 21 -24 24 -10 31 16
8 l23 -19 -18 21 c-10 12 -29 21 -42 20 l-24 -1 26 -27z"/>
<path d="M3123 1412 c-8 -5 -9 -13 -3 -22 11 -17 23 -8 18 14 -2 9 -8 12 -15
8z"/>
<path d="M1853 4402 c-7 -4 -12 -21 -12 -37 0 -17 -1 -42 -2 -57 -1 -28 15
-58 33 -58 5 0 4 9 -2 19 -16 32 -12 88 8 103 31 23 36 38 10 38 -13 0 -29 -4
-35 -8z"/>
<path d="M1930 4396 c0 -18 31 -29 44 -16 8 8 7 14 -4 20 -22 14 -40 12 -40
-4z"/>
<path d="M1793 4355 c-3 -9 -3 -18 0 -21 9 -9 27 6 27 22 0 19 -19 18 -27 -1z"/>
<path d="M1894 4323 c-9 -34 7 -58 37 -58 30 0 49 45 29 69 -21 26 -59 20 -66
-11z m31 -3 c-3 -5 -11 -10 -16 -10 -6 0 -7 5 -4 10 3 6 11 10 16 10 6 0 7 -4
4 -10z"/>
<path d="M1790 4282 c0 -27 30 -66 42 -54 6 6 4 18 -6 34 -9 14 -13 28 -9 31
3 4 -1 7 -10 7 -10 0 -17 -8 -17 -18z"/>
<path d="M806 2325 c8 -19 39 -37 48 -28 8 9 -24 43 -40 43 -8 0 -11 -6 -8
-15z"/>
<path d="M879 1880 c-10 -27 48 -107 104 -143 15 -10 25 -23 21 -29 -4 -7 -3
-8 4 -4 7 4 21 1 33 -7 15 -11 17 -16 7 -21 -7 -3 -2 -3 11 0 16 4 21 3 17 -5
-4 -6 0 -11 8 -11 26 0 19 8 -51 54 -86 56 -129 101 -140 146 -6 21 -12 29
-14 20z"/>
<path d="M850 1815 c0 -5 5 -17 10 -25 5 -8 10 -10 10 -5 0 6 -5 17 -10 25 -5
8 -10 11 -10 5z"/>
<path d="M884 1777 c0 -17 6 -22 27 -22 21 -1 25 2 18 11 -6 7 -18 10 -26 7
-10 -4 -14 -2 -9 5 3 6 3 13 -2 16 -4 2 -8 -5 -8 -17z"/>
<path d="M1123 1645 c0 -8 4 -12 9 -9 5 3 6 10 3 15 -9 13 -12 11 -12 -6z"/>
<path d="M2555 3160 c-3 -5 1 -10 9 -10 9 0 16 5 16 10 0 6 -4 10 -9 10 -6 0
-13 -4 -16 -10z"/>
<path d="M2828 3023 c7 -3 16 -2 19 1 4 3 -2 6 -13 5 -11 0 -14 -3 -6 -6z"/>
<path d="M2890 2996 c0 -2 7 -7 16 -10 8 -3 12 -2 9 4 -6 10 -25 14 -25 6z"/>
<path d="M3158 2873 c7 -3 16 -2 19 1 4 3 -2 6 -13 5 -11 0 -14 -3 -6 -6z"/>
<path d="M3706 2192 c-3 -5 1 -9 9 -9 8 0 12 4 9 9 -3 4 -7 8 -9 8 -2 0 -6 -4
-9 -8z"/>
<path d="M3590 1968 c11 -14 52 -19 44 -6 -4 5 -12 7 -19 4 -7 -2 -18 0 -24 5
-8 6 -8 5 -1 -3z"/>
<path d="M5137 1299 c4 -13 8 -18 11 -10 2 7 -1 18 -6 23 -8 8 -9 4 -5 -13z"/>
<path d="M4050 1081 c8 -5 31 -11 50 -15 24 -4 28 -3 15 2 -31 14 -83 24 -65
13z"/>
<path d="M4160 1042 c0 -5 7 -9 15 -9 8 0 12 4 9 9 -3 4 -9 8 -15 8 -5 0 -9
-4 -9 -8z"/>
<path d="M4210 1020 c8 -5 20 -10 25 -10 6 0 3 5 -5 10 -8 5 -19 10 -25 10 -5
0 -3 -5 5 -10z"/>
<path d="M4270 996 c0 -3 9 -10 20 -16 11 -6 20 -8 20 -6 0 3 -9 10 -20 16
-11 6 -20 8 -20 6z"/>
<path d="M4120 725 c0 -8 8 -15 18 -16 14 0 14 -2 -3 -9 -14 -6 -15 -9 -4 -9
18 -1 39 18 39 36 0 7 -11 13 -25 13 -16 0 -25 -6 -25 -15z"/>
<path d="M2183 723 c9 -2 23 -2 30 0 6 3 -1 5 -18 5 -16 0 -22 -2 -12 -5z"/>
<path d="M2145 710 c-3 -5 -1 -10 4 -10 6 0 11 5 11 10 0 6 -2 10 -4 10 -3 0
-8 -4 -11 -10z"/>
<path d="M2210 696 c0 -2 7 -7 16 -10 8 -3 12 -2 9 4 -6 10 -25 14 -25 6z"/>
<path d="M3760 550 c0 -5 5 -10 10 -10 6 0 10 5 10 10 0 6 -4 10 -10 10 -5 0
-10 -4 -10 -10z"/>
<path d="M3058 523 c7 -3 16 -2 19 1 4 3 -2 6 -13 5 -11 0 -14 -3 -6 -6z"/>
<path d="M3278 493 c6 -2 18 -2 25 0 6 3 1 5 -13 5 -14 0 -19 -2 -12 -5z"/>
</g>
</svg>
