<svg width="690" height="690" viewBox="0 0 690 690" fill="none" xmlns="http://www.w3.org/2000/svg">
<g clip-path="url(#clip0_109_311)">
<path d="M542.288 0H147.061C65.8416 0 0 65.9037 0 147.2V542.8C0 624.096 65.8416 690 147.061 690H542.288C623.508 690 689.35 624.096 689.35 542.8V147.2C689.35 65.9037 623.508 0 542.288 0Z" fill="url(#paint0_linear_109_311)"/>
<path d="M356.606 86.25C452.282 86.25 535.217 140.852 576.006 220.623L573.138 222.082L491.857 269.123C468.268 217.977 416.58 182.483 356.606 182.483C274.375 182.483 207.714 249.207 207.714 331.515C207.714 363.296 217.653 392.753 234.589 416.943L224.476 495.281L293.421 466.501C312.601 475.512 334.016 480.549 356.606 480.549C418.726 480.549 471.956 442.469 494.28 388.36L577.392 435.413L580.151 436.453C564.994 469.145 542.892 497.955 515.738 520.981L518.377 603.75L443.68 563.707L444.588 563.141C417.265 573.604 387.604 579.337 356.606 579.337C220.572 579.337 110.296 468.955 110.296 332.794C110.296 196.632 220.572 86.2502 356.606 86.25Z" fill="#173F35"/>
<path d="M332.997 400.959L317.727 395.902L322.475 381.534C300.937 371.35 295.204 355.376 300.911 338.103L301.771 335.506L317.958 340.865L317.402 342.546C313.209 355.233 316.432 363.423 337.811 370.502C352.93 375.508 359.791 373.201 362.923 363.724C366.004 354.4 364.062 350.027 349.393 341.607L333.147 332.328C316.696 323.15 310.058 311.456 315.412 295.253C320.01 281.343 334.23 271.637 357.029 276.982L361.676 262.92L376.948 267.976L372.199 282.345C392.72 292.531 396.829 309.832 391.525 325.881L390.919 327.716L374.732 322.357L375.288 320.675C379.43 308.141 376.105 299.748 357.779 293.68C342.661 288.674 335.138 290.932 332.157 299.95C329.076 309.274 332.34 313.237 345.379 320.947L361.575 330.379C379.504 340.724 384.72 353.135 379.618 368.574C374.667 383.554 360.446 392.75 337.594 387.049L332.997 400.959Z" fill="#173F35"/>
</g>
<defs>
<linearGradient id="paint0_linear_109_311" x1="-6.84187" y1="-9.20002" x2="680.295" y2="685.029" gradientUnits="userSpaceOnUse">
<stop stop-color="#5CF674"/>
<stop offset="1" stop-color="#30BE2E"/>
</linearGradient>
<clipPath id="clip0_109_311">
<rect width="690" height="690" fill="white"/>
</clipPath>
</defs>
</svg>
