<svg width="200" height="36" viewBox="0 0 200 36" fill="none" xmlns="http://www.w3.org/2000/svg">
<g id="Frame" clip-path="url(#clip0_367_36547)">
<g id="Clip path group">
<mask id="mask0_367_36547" style="mask-type:luminance" maskUnits="userSpaceOnUse" x="0" y="0" width="199" height="36">
<g id="a">
<path id="Vector" d="M0 0.5H198.546V35.5H0V0.5Z" fill="white"/>
</g>
</mask>
<g mask="url(#mask0_367_36547)">
<g id="Group">
<path id="Vector_2" d="M67.4757 5.7675V25.6281H78.0155C78.3748 25.6281 78.666 25.9197 78.666 26.2794V27.8972C78.666 28.255 78.3748 28.5486 78.0155 28.5486H64.8505C64.6778 28.5486 64.5121 28.48 64.3898 28.3579C64.2675 28.2358 64.1986 28.0702 64.1981 27.8972V5.7675C64.1981 5.40778 64.4913 5.11417 64.8505 5.11417H66.8155C67.1728 5.11417 67.466 5.40778 67.466 5.7675H67.4757ZM85.767 27.6892C84.4633 26.8912 83.3971 25.7578 82.6796 24.4069C81.9508 23.0381 81.5858 21.5123 81.5845 19.8297C81.5845 18.1458 81.9534 16.6331 82.6796 15.2525C83.4175 13.8784 84.4466 12.7844 85.767 11.9703C87.09 11.1575 88.6142 10.7511 90.3398 10.7511C91.945 10.7537 93.3612 11.1193 94.5884 11.8478C95.8181 12.5789 96.7786 13.6159 97.4699 14.9589C98.1573 16.3031 98.5003 17.8451 98.499 19.5847C98.5003 20.0747 98.4874 20.4468 98.4602 20.7008H84.8621C85.0239 22.3264 85.5806 23.6596 86.532 24.7006C87.4874 25.7408 88.7612 26.2503 90.367 26.2503C91.5968 26.249 92.6421 25.9405 93.5029 25.3247C94.2291 24.8036 94.7786 24.1133 95.1359 23.2636C95.1892 23.1293 95.2837 23.0154 95.4059 22.9385C95.5281 22.8616 95.6716 22.8256 95.8155 22.8358L97.5243 23.0167C97.6248 23.0286 97.7213 23.0632 97.8066 23.1179C97.8919 23.1726 97.9636 23.246 98.0165 23.3324C98.0694 23.4189 98.1021 23.5162 98.112 23.6171C98.1219 23.718 98.1088 23.8199 98.0738 23.915C97.588 25.2642 96.7136 26.4389 95.5612 27.2906C94.1424 28.3613 92.3987 28.8973 90.3301 28.8986C88.6136 28.8986 87.09 28.4922 85.7592 27.6794L85.767 27.6892ZM95.2874 18.2217C95.0816 16.775 94.5592 15.6122 93.7204 14.7333C92.8796 13.8428 91.7379 13.4092 90.2641 13.4092C88.7903 13.4092 87.6097 13.8525 86.6932 14.7314C85.778 15.6219 85.2019 16.7854 84.965 18.2217H95.2874ZM104.25 11.5367L109.217 25.21L114.184 11.5367C114.23 11.4102 114.314 11.3007 114.423 11.2228C114.533 11.145 114.664 11.1025 114.798 11.1011H116.866C116.973 11.1012 117.079 11.1274 117.173 11.1774C117.268 11.2274 117.349 11.2998 117.41 11.3882C117.47 11.4766 117.508 11.5784 117.521 11.6849C117.534 11.7914 117.52 11.8994 117.482 11.9994L111.163 28.1422C111.116 28.2667 111.032 28.3736 110.922 28.4481C110.813 28.5227 110.682 28.5612 110.55 28.5583H107.883C107.751 28.5584 107.622 28.5188 107.513 28.4446C107.404 28.3704 107.319 28.2651 107.27 28.1422L100.951 11.9994C100.912 11.8995 100.898 11.7915 100.91 11.6848C100.922 11.5781 100.96 11.4759 101.02 11.3873C101.081 11.2986 101.162 11.2262 101.257 11.1763C101.352 11.1264 101.458 11.1006 101.565 11.1011H103.635C103.907 11.1011 104.155 11.2722 104.25 11.5367ZM123.845 27.6892C122.541 26.8912 121.475 25.7578 120.757 24.4069C120.03 23.0381 119.665 21.5123 119.662 19.8297C119.662 18.1458 120.031 16.6331 120.757 15.2525C121.495 13.8784 122.524 12.7844 123.845 11.9703C125.165 11.1562 126.689 10.7498 128.417 10.7511C130.023 10.7537 131.439 11.1193 132.666 11.8478C133.896 12.5789 134.856 13.6159 135.548 14.9589C136.235 16.3031 136.578 17.8451 136.577 19.5847C136.578 20.0747 136.565 20.4468 136.538 20.7008H122.94C123.1 22.3264 123.657 23.6596 124.61 24.7006C125.565 25.7408 126.839 26.2503 128.445 26.2503C129.674 26.249 130.72 25.9405 131.581 25.3247C132.308 24.8023 132.852 24.1153 133.214 23.2636C133.267 23.1293 133.361 23.0154 133.484 22.9385C133.606 22.8616 133.749 22.8256 133.893 22.8358L135.602 23.0167C135.702 23.0286 135.799 23.0632 135.884 23.1179C135.97 23.1726 136.041 23.246 136.094 23.3324C136.147 23.4189 136.18 23.5162 136.19 23.6171C136.2 23.718 136.186 23.8199 136.151 23.915C135.666 25.2642 134.791 26.4389 133.639 27.2906C132.219 28.3613 130.475 28.8973 128.408 28.8986C126.691 28.8986 125.168 28.4922 123.837 27.6794L123.845 27.6892ZM133.365 18.2217C133.159 16.775 132.637 15.6122 131.798 14.7333C130.957 13.8428 129.814 13.4092 128.342 13.4092C126.866 13.4092 125.687 13.8525 124.771 14.7314C123.856 15.6219 123.28 16.7854 123.043 18.2217H133.365ZM160.854 26.3358C159.412 24.6519 158.693 22.3828 158.693 19.5458V5.73056C158.693 5.37083 158.984 5.07722 159.346 5.07722H161.282C161.639 5.07722 161.932 5.36889 161.932 5.73056V19.5458C161.932 21.524 162.379 23.0847 163.272 24.2281C164.17 25.3701 165.512 25.9405 167.297 25.9392C169.082 25.9392 170.431 25.3714 171.32 24.2281C172.216 23.0834 172.663 21.5227 172.66 19.5458V5.73056C172.66 5.37083 172.953 5.07722 173.313 5.07722H175.276C175.635 5.07722 175.928 5.36889 175.928 5.73056V19.5458C175.928 22.3847 175.202 24.6539 173.748 26.3358C172.294 28.0262 170.137 28.8714 167.278 28.8714C164.416 28.8714 162.272 28.0294 160.827 26.3358H160.854ZM187.375 27.8019C186.382 27.0903 185.598 26.1194 185.023 24.8892V34.8467C185.023 35.2064 184.73 35.5 184.371 35.5H182.435C182.262 35.4995 182.097 35.4304 181.975 35.308C181.853 35.1855 181.784 35.0196 181.784 34.8467V11.7156C181.784 11.3558 182.076 11.0642 182.435 11.0642H184.371C184.73 11.0642 185.023 11.3558 185.023 11.7156V14.6944C185.608 13.463 186.392 12.492 187.373 11.7817C188.364 11.07 189.568 10.7135 190.983 10.7122C192.466 10.7122 193.784 11.1095 194.938 11.9042C196.09 12.6988 196.978 13.7864 197.602 15.1669C198.235 16.5475 198.546 18.0992 198.546 19.7928C198.546 21.4844 198.235 23.0361 197.602 24.4167C196.979 25.7972 196.082 26.8939 194.938 27.6794C193.784 28.4728 192.466 28.8701 190.983 28.8714C189.499 28.8714 188.365 28.5214 187.375 27.8019ZM186.402 24.1717C187.321 25.3435 188.57 25.9294 190.15 25.9294C191.728 25.9294 193.012 25.3442 193.936 24.1717C194.855 22.9946 195.315 21.535 195.316 19.7928C195.316 18.0525 194.854 16.5844 193.938 15.4139C193.019 14.2407 191.757 13.6542 190.151 13.6542C188.546 13.6542 187.317 14.2414 186.402 15.4139C185.487 16.5864 185.023 18.0525 185.023 19.7928C185.023 21.5331 185.485 22.9972 186.402 24.1717ZM143.903 25.7389H148.975C149.334 25.7389 149.627 26.0344 149.627 26.3922V27.905C149.627 28.2647 149.336 28.5583 148.975 28.5583H141.402C141.229 28.5583 141.064 28.4898 140.941 28.3677C140.819 28.2456 140.75 28.0799 140.75 27.9069V7.94333H138.249C138.076 7.94333 137.91 7.8745 137.787 7.75198C137.665 7.62945 137.596 7.46328 137.596 7.29V5.77722C137.596 5.4175 137.887 5.12389 138.249 5.12389H141.977C143.064 5.12389 143.915 6.00472 143.915 7.0625V25.7408L143.903 25.7389ZM41.1942 0.500001C37.5566 0.504545 34.0303 1.75618 31.2019 4.04667C31.0525 3.98914 30.9016 3.93533 30.7495 3.88528C30.4387 3.78654 30.1015 3.81471 29.8113 3.96364C29.5212 4.11258 29.3014 4.37023 29.2 4.68056C28.9922 5.32222 29.3515 6.02222 29.9942 6.23028C33.1282 7.24139 36.0757 8.97195 38.4932 11.2431C38.7325 11.4638 39.0489 11.5814 39.3741 11.5705C39.6992 11.5596 40.0071 11.421 40.2311 11.1847C40.4519 10.9457 40.5696 10.629 40.5587 10.3036C40.5478 9.97811 40.4091 9.6701 40.1728 9.44639C38.3017 7.70132 36.1748 6.25344 33.866 5.15306C36.0474 3.7337 38.5928 2.97793 41.1942 2.97722C42.5262 2.97722 43.6019 4.05639 43.6019 5.38833V26.4408C43.6019 26.5342 43.5825 26.6197 43.5728 26.7053C38.4756 21.2403 31.9265 17.346 24.6951 15.48C23.598 15.2012 22.4486 15.2012 21.3515 15.48C14.1212 17.3432 7.5722 21.2341 2.47379 26.6956C2.47379 26.6003 2.4466 26.5167 2.4466 26.4311V5.37083C2.4466 4.03695 3.52233 2.95972 4.85437 2.95972C7.4699 2.95972 10 3.72389 12.1748 5.13361C9.86993 6.23269 7.74796 7.68079 5.8835 9.42695C5.64661 9.65073 5.50758 9.95915 5.49667 10.2851C5.48576 10.611 5.60385 10.9281 5.82524 11.1672C6.04983 11.4032 6.3579 11.5415 6.68324 11.5524C7.00858 11.5633 7.32521 11.446 7.56505 11.2256C9.82253 9.112 12.4892 7.48494 15.4 6.4451C18.3108 5.40525 21.4037 4.97477 24.4874 5.18028C24.8125 5.19894 25.1318 5.08824 25.3758 4.87229C25.6198 4.65634 25.7688 4.35262 25.7903 4.02722C25.8094 3.70153 25.6991 3.38148 25.4833 3.13701C25.2676 2.89254 24.964 2.74352 24.6388 2.7225C24.101 2.68361 23.5631 2.67583 23.0136 2.67583C20.2 2.67583 17.433 3.14833 14.8272 4.04667C12.0128 1.7513 8.49378 0.498589 4.86408 0.500001C3.57436 0.501031 2.33776 1.01454 1.42579 1.92777C0.513823 2.84101 0.00102848 4.07933 0 5.37083L0 26.4194C0.0010289 28.2102 0.711853 29.9272 1.97632 31.1934C3.24078 32.4597 4.95547 33.1715 6.74369 33.1725H39.3243C41.1122 33.171 42.8263 32.4589 44.0904 31.1928C45.3544 29.9266 46.065 28.2098 46.066 26.4194V5.37083C46.065 4.07966 45.5525 2.84164 44.6409 1.92846C43.7294 1.01528 42.4933 0.501546 41.2039 0.500001H41.1942Z" fill="#101010"/>
<path id="Vector_3" d="M16.035 30.7245C17.5282 30.7245 18.7359 28.3795 18.7359 25.4861C18.7359 22.5909 17.5282 20.2458 16.0369 20.2458C14.5437 20.2458 13.334 22.5909 13.334 25.4861C13.334 28.3814 14.5437 30.7245 16.035 30.7245ZM30.1631 30.7245C31.6544 30.7245 32.8641 28.3795 32.8641 25.4861C32.8641 22.5909 31.6544 20.2458 30.1651 20.2458C28.6718 20.2458 27.4621 22.5909 27.4621 25.4861C27.4621 28.3814 28.6718 30.7245 30.1631 30.7245Z" fill="white"/>
<path id="Vector_4" d="M25.7822 4.0739C25.7488 4.38866 25.5956 4.67843 25.3544 4.88302C25.1132 5.08761 24.8026 5.19129 24.4871 5.17251C21.4039 4.96881 18.3117 5.39976 15.4013 6.43881C12.4909 7.47786 9.82385 9.10296 7.56474 11.2139C7.3358 11.4258 7.0357 11.5438 6.72396 11.5445C6.55576 11.5449 6.38929 11.5106 6.23494 11.4436C6.08059 11.3767 5.94167 11.2787 5.82687 11.1556C5.60523 10.9167 5.4868 10.5997 5.49734 10.2738C5.50789 9.9479 5.64656 9.63933 5.88318 9.41529C7.75146 7.67391 9.87266 6.22633 12.1744 5.12196C9.9949 3.70541 7.45241 2.95106 4.85406 2.95001C4.21548 2.95001 3.60305 3.20404 3.15151 3.65621C2.69996 4.10838 2.44629 4.72166 2.44629 5.36112V26.4117C2.44629 26.507 2.46571 26.5906 2.47347 26.6761C7.56709 21.2087 14.118 17.3167 21.3511 15.4606C22.4483 15.1817 23.5977 15.1817 24.6948 15.4606C31.9262 17.3265 38.4753 21.2209 43.5725 26.6858C43.5725 26.5906 43.6016 26.507 43.6016 26.4214V5.37085C43.6016 4.73138 43.348 4.1181 42.8964 3.66593C42.4449 3.21376 41.8324 2.95973 41.1939 2.95973C38.5938 2.96757 36.0505 3.72203 33.8657 5.13362C36.1707 6.24163 38.2971 7.68876 40.1744 9.42696C40.3557 9.59504 40.482 9.81407 40.5368 10.0553C40.5916 10.2966 40.5722 10.5488 40.4813 10.7788C40.3904 11.0088 40.2321 11.206 40.0273 11.3444C39.8225 11.4827 39.5807 11.5559 39.3337 11.5542C39.0219 11.5535 38.7218 11.4355 38.4929 11.2236C36.0605 8.95027 33.1591 7.23969 29.9939 6.21279C29.691 6.11605 29.4382 5.90421 29.2897 5.62278C29.1412 5.34136 29.1089 5.01282 29.1997 4.70779C28.0766 4.4155 26.9347 4.2011 25.7822 4.06612V4.0739Z" fill="white"/>
</g>
</g>
</g>
</g>
<defs>
<clipPath id="clip0_367_36547">
<rect width="200" height="35" fill="white" transform="translate(0 0.5)"/>
</clipPath>
</defs>
</svg>
