<svg width="150" height="42" viewBox="0 0 150 42" fill="none" xmlns="http://www.w3.org/2000/svg">
<g id="Scroll_FullLogo.07032ebd8a84b79128eb669f2822bc5e 1" clip-path="url(#clip0_365_34609)">
<g id="Group">
<path id="Vector" d="M57.0462 11.8209C54.2647 11.8209 52.0901 13.4393 52.0901 15.7656C52.0901 18.092 53.9107 18.8506 56.1865 19.3057L59.0692 19.7609C62.8621 20.3678 65.4919 22.1378 65.4919 26.2848C65.4919 30.6341 61.9518 33.1628 57.4002 33.1628C53.3038 33.1628 49.4603 30.7353 48.904 26.032C48.8534 25.6274 49.1568 25.2734 49.5614 25.2734H51.2809C51.5843 25.2734 51.8878 25.5262 51.9383 25.8297C52.2924 29.1675 54.8716 30.4824 57.4002 30.4824C60.1818 30.4824 62.3564 29.1169 62.3564 26.3354C62.3564 23.8573 60.5864 22.9976 58.26 22.5424L55.4279 22.0367C51.4832 21.3792 49.0051 19.4575 49.0051 15.8668C49.0051 11.6692 52.6464 9.08997 57.0462 9.08997C60.5358 9.08997 64.4299 11.0623 65.1885 15.7656C65.2391 16.1702 64.9356 16.5242 64.5311 16.5242H62.7104C62.407 16.5242 62.1035 16.2714 62.053 15.9679C61.5472 12.9841 59.2715 11.8209 57.0462 11.8209Z" fill="#101010"/>
<path id="Vector_2" d="M76.8206 14.4001C81.0687 14.4001 84.0526 16.6759 85.1146 20.3678C85.2157 20.7724 84.9123 21.2275 84.4571 21.2275H82.4848C82.1814 21.2275 81.9791 21.0252 81.8779 20.7724C81.1193 18.6483 79.4504 17.4851 76.8206 17.4851C73.2805 17.4851 71.3081 20.3678 71.3081 23.8573C71.3081 27.2963 73.2805 30.2295 76.8206 30.2295C79.3998 30.2295 81.1193 29.0158 81.8779 26.9423C81.9791 26.6894 82.2319 26.4871 82.4848 26.4871H84.4571C84.9123 26.4871 85.2157 26.8917 85.064 27.3469C83.9514 31.1904 81.0182 33.3145 76.77 33.3145C71.3081 33.3145 67.8691 29.1169 67.8691 23.9079C67.9197 18.6483 71.4093 14.4001 76.8206 14.4001Z" fill="#101010"/>
<path id="Vector_3" d="M88.3518 30.179H92.5999V18.3449H88.807C88.4529 18.3449 88.1495 18.0414 88.1495 17.6874V16.0185C88.1495 15.6645 88.4529 15.3611 88.807 15.3611H93.9654C95.0274 15.3611 95.9378 16.2714 95.9378 17.3334V17.7886C96.8987 15.5128 98.9216 14.9565 102.057 14.9565C103.271 14.9565 104.08 15.1588 104.535 15.3105C104.788 15.4116 104.94 15.6645 104.94 15.9174V17.6874C104.94 18.1426 104.535 18.446 104.08 18.2943C103.524 18.092 102.715 17.9403 101.703 17.9403C98.3653 17.9403 95.9883 20.2161 95.9883 24.2114V30.179H101.45C101.804 30.179 102.108 30.4824 102.108 30.8365V32.5054C102.108 32.8594 101.804 33.1628 101.45 33.1628H88.3518C87.9978 33.1628 87.6943 32.8594 87.6943 32.5054V30.8365C87.6943 30.4824 87.9978 30.179 88.3518 30.179Z" fill="#101010"/>
<path id="Vector_4" d="M107.468 23.8068C107.468 18.6483 110.907 14.4001 116.47 14.4001C122.033 14.4001 125.472 18.5977 125.472 23.8068C125.472 28.9652 122.033 33.2134 116.47 33.2134C110.856 33.1628 107.468 28.9652 107.468 23.8068ZM116.419 30.1284C120.01 30.1284 122.033 27.2457 122.033 23.7562C122.033 20.3172 119.959 17.384 116.419 17.384C112.829 17.384 110.806 20.2666 110.806 23.7562C110.806 27.2457 112.879 30.1284 116.419 30.1284Z" fill="#101010"/>
<path id="Vector_5" d="M132.855 30.3307H138.014C138.368 30.3307 138.671 30.6341 138.671 30.9881V32.5559C138.671 32.9099 138.368 33.2134 138.014 33.2134H130.327C129.973 33.2134 129.669 32.9099 129.669 32.5559V12.2255H127.09C126.736 12.2255 126.433 11.9221 126.433 11.5681V10.0003C126.433 9.64627 126.736 9.34283 127.09 9.34283H130.883C131.945 9.34283 132.855 10.2532 132.855 11.3152V30.3307Z" fill="#101010"/>
<path id="Vector_6" d="M144.234 30.3307H149.393C149.747 30.3307 150.05 30.6341 150.05 30.9881V32.5559C150.05 32.9099 149.747 33.2134 149.393 33.2134H141.706C141.352 33.2134 141.048 32.9099 141.048 32.5559V12.2255H138.469C138.115 12.2255 137.812 11.9221 137.812 11.5681V10.0003C137.812 9.64627 138.115 9.34283 138.469 9.34283H142.262C143.324 9.34283 144.234 10.2532 144.234 11.3152V30.3307Z" fill="#101010"/>
<path id="Vector_7" d="M38.6885 28.3584V4.13382C38.6379 2.11089 37.0196 0.492554 34.9966 0.492554H9.81119C4.34929 0.5937 0 5.04414 0 10.506C0 12.3267 0.505732 13.945 1.26433 15.3105C1.92178 16.4737 2.93324 17.5357 3.89413 18.3449C4.19757 18.5977 4.04585 18.4966 4.9056 19.0023C6.06878 19.7104 7.43426 20.0644 7.43426 20.0644V34.5283C7.48483 35.2363 7.5354 35.8938 7.7377 36.5006C8.294 38.5236 9.71005 40.0913 11.6318 40.8499C12.441 41.1534 13.3513 41.3557 14.3122 41.4062L34.3898 41.5074C38.385 41.5074 41.6723 38.2707 41.6723 34.2248C41.6723 31.8479 40.5091 29.6733 38.6885 28.3584Z" fill="#FFEEDA"/>
<path id="Vector_8" d="M39.1937 34.3766C39.0926 36.9558 36.9685 39.0293 34.3893 39.0293L20.5322 38.9787C21.6448 37.7144 22.3023 36.0455 22.3023 34.2249C22.3023 31.3928 20.6334 29.4204 20.6334 29.4204H34.4398C37.0697 29.4204 39.2443 31.5951 39.2443 34.2249L39.1937 34.3766Z" fill="#EBC28E"/>
<path id="Vector_9" d="M5.20904 16.322C3.59069 14.8048 2.47809 12.8324 2.47809 10.506V10.2532C2.6298 6.30847 5.86649 3.07178 9.81119 2.97064H35.0472C35.7047 3.02121 36.2104 3.47637 36.2104 4.13382V25.5263C36.7667 25.6274 37.0701 25.7286 37.6264 25.8803C38.0816 26.032 38.6885 26.386 38.6885 26.386V4.13382C38.6379 2.11089 37.0196 0.492554 34.9966 0.492554H9.81119C4.34929 0.5937 0 5.04414 0 10.506C0 13.6921 1.46662 16.4231 3.79299 18.2943C3.94471 18.446 4.09643 18.5977 4.55158 18.5977C5.31018 18.5977 5.81591 17.9909 5.76534 17.384C5.76534 16.8277 5.56305 16.6254 5.20904 16.322Z" fill="#101010"/>
<path id="Vector_10" d="M34.3899 26.9423H14.6158C13.3009 26.9423 12.2388 28.0043 12.2388 29.3698V32.2019C12.2894 33.5168 13.402 34.6294 14.7169 34.6294H16.1836V32.2019H14.7169V29.4204C14.7169 29.4204 15.0709 29.4204 15.5261 29.4204C18.0042 29.4204 19.8754 31.7468 19.8754 34.2248C19.8754 36.4501 17.8525 39.2316 14.5146 39.0293C11.5308 38.827 9.91248 36.1972 9.91248 34.2248V10.1014C9.91248 9.03941 9.00216 8.12909 7.94013 8.12909H5.96777V10.6072H7.43439V34.2754C7.33325 39.0799 10.8734 41.5074 14.5146 41.5074L34.4405 41.5579C38.4357 41.5579 41.723 38.3213 41.723 34.2754C41.6724 30.2296 38.4357 26.9423 34.3899 26.9423ZM39.1943 34.3766C39.0932 36.9558 36.9691 39.0293 34.3899 39.0293L20.5328 38.9787C21.6455 37.7144 22.3029 36.0455 22.3029 34.2248C22.3029 31.3927 20.634 29.4204 20.634 29.4204H34.4405C37.0703 29.4204 39.2449 31.595 39.2449 34.2248L39.1943 34.3766Z" fill="#101010"/>
<path id="Vector_11" d="M29.0792 11.0118H14.1602V8.58429H29.0792C29.7367 8.58429 30.293 9.14059 30.293 9.79805C30.293 10.4555 29.7873 11.0118 29.0792 11.0118Z" fill="#101010"/>
<path id="Vector_12" d="M29.0792 22.6436H14.1602V20.1655H29.0792C29.7367 20.1655 30.293 20.7218 30.293 21.3793C30.293 22.0873 29.7873 22.6436 29.0792 22.6436Z" fill="#101010"/>
<path id="Vector_13" d="M31.709 16.8277H14.1602V14.3496H31.709C32.3665 14.3496 32.9228 14.9059 32.9228 15.5634C32.9228 16.2714 32.3665 16.8277 31.709 16.8277Z" fill="#101010"/>
</g>
</g>
<defs>
<clipPath id="clip0_365_34609">
<rect width="150" height="41.0148" fill="white" transform="translate(0 0.492554)"/>
</clipPath>
</defs>
</svg>
