<svg width="170" height="38" viewBox="0 0 170 38" fill="none" xmlns="http://www.w3.org/2000/svg">
<path fill-rule="evenodd" clip-rule="evenodd" d="M0 13.2584C0 19.8118 5.18416 25.1377 11.5489 25.1377C17.9136 25.1377 23.0978 19.8118 23.0978 13.2584C23.0978 6.70485 17.9136 1.37889 11.5489 1.37889C5.18416 1.37889 0 6.70485 0 13.2584ZM3.84963 13.2584C3.84963 8.88935 7.30146 5.33871 11.5489 5.33871C15.7963 5.33871 19.2482 8.88935 19.2482 13.2584C19.2482 17.6273 15.7963 21.1779 11.5489 21.1779C7.30146 21.1779 3.84963 17.6273 3.84963 13.2584ZM22.5331 28.5168L14.8339 36.4364C14.4618 36.8258 13.9677 37.0171 13.4737 37.0171C12.9797 37.0171 12.492 36.8258 12.1135 36.4364C11.3628 35.6643 11.3628 34.4103 12.1135 33.6382L19.8128 25.7185C20.5635 24.9464 21.7825 24.9464 22.5331 25.7185C23.2839 26.4907 23.2839 27.7446 22.5331 28.5168ZM22.7128 3.3588C22.7128 2.05206 23.7522 0.98291 25.0226 0.98291C26.293 0.98291 27.3324 2.05206 27.3324 3.3588C27.3324 4.66554 26.293 5.73468 25.0226 5.73468C23.7522 5.73468 22.7128 4.66554 22.7128 3.3588ZM47.7002 11.5586V27.3042H43.7931V11.5586H38.7351V7.75984H52.8116V11.5586H47.7002ZM58.5654 20.5876V27.3042H54.899V6.65871H58.5654V15.1096C59.2611 14.0086 60.6527 13.2378 62.3923 13.2378C65.6304 13.2378 67.5572 15.6602 67.5572 19.2387V27.3042H63.8909V19.8719C63.8909 17.8899 63.0613 16.6787 61.5359 16.6787C59.8499 16.6787 58.5654 17.945 58.5654 20.5876ZM83.935 22.8173C83.1322 25.5975 80.4827 27.607 77.0844 27.607C72.9895 27.607 70.0727 24.5791 70.0727 20.3949C70.0727 16.2933 73.0434 13.2378 77.1109 13.2378C81.045 13.2378 84.2832 16.1282 84.0958 21.3033H73.6587C73.8196 22.9274 74.9971 24.3313 77.2718 24.3313C78.5563 24.3313 79.68 23.7532 80.1087 22.8173H83.935ZM73.7923 18.8259H80.0814C79.6269 16.9815 78.2619 16.2933 77.004 16.2933C75.3181 16.2933 74.1405 17.3118 73.7923 18.8259ZM111.5 15.6051C112.355 23.6431 107.78 27.6346 102.133 27.6346C96.3258 27.6346 92.1239 23.2027 92.1239 17.532C92.1239 11.8614 96.3258 7.42948 102.079 7.42948C106.067 7.42948 109.76 9.8519 111.044 13.5406H106.602C105.666 12.1092 103.899 11.2833 102.079 11.2833C98.4396 11.2833 96.0314 14.036 96.0314 17.532C96.0314 21.028 98.4396 23.7807 102.133 23.7807C105.211 23.7807 107.057 22.0465 107.485 19.3488H101.678V15.6051H111.5ZM117.896 20.7252V27.3042H114.229V13.5406H117.896V15.7428C118.35 14.3939 119.715 13.3754 121.214 13.3754C121.588 13.3754 121.99 13.4029 122.445 13.5406V17.3669C121.883 17.1742 121.374 17.0641 120.786 17.0641C119.046 17.0641 117.896 18.4679 117.896 20.7252ZM133.604 25.7627C133.016 26.6436 131.598 27.607 129.751 27.607C126.192 27.607 123.462 24.3313 123.462 20.4224C123.462 16.5135 126.192 13.2378 129.751 13.2378C131.598 13.2378 133.016 14.2012 133.604 15.0821V13.5406H137.271V27.3042H133.604V25.7627ZM127.155 20.4224C127.155 22.5696 128.519 24.1661 130.527 24.1661C132.534 24.1661 133.899 22.5696 133.899 20.4224C133.899 18.2753 132.534 16.6787 130.527 16.6787C128.519 16.6787 127.155 18.2753 127.155 20.4224ZM144.496 25.7627V33.0574H140.83V13.5406H144.496V15.0821C145.112 14.2012 146.53 13.2378 148.377 13.2378C151.936 13.2378 154.665 16.5135 154.665 20.4224C154.665 24.3313 151.936 27.607 148.377 27.607C146.53 27.607 145.112 26.6436 144.496 25.7627ZM144.202 20.4224C144.202 22.5696 145.567 24.1661 147.574 24.1661C149.581 24.1661 150.946 22.5696 150.946 20.4224C150.946 18.2753 149.581 16.6787 147.574 16.6787C145.567 16.6787 144.202 18.2753 144.202 20.4224ZM161.008 20.5876V27.3042H157.342V6.65871H161.008V15.1096C161.704 14.0086 163.096 13.2378 164.835 13.2378C168.073 13.2378 170 15.6602 170 19.2387V27.3042H166.334V19.8719C166.334 17.8899 165.504 16.6787 163.979 16.6787C162.293 16.6787 161.008 17.945 161.008 20.5876Z" fill="#0C0A1D"/>
</svg>
