<svg width="24" height="24" viewBox="0 0 24 24" fill="none" xmlns="http://www.w3.org/2000/svg">
  <path opacity="0.32" fill-rule="evenodd" clip-rule="evenodd" d="M12 2C6.47715 2 2 6.47715 2 12C2 17.5228 6.47715 22 12 22C17.5228 22 22 17.5228 22 12C22 6.47715 17.5228 2 12 2ZM12 12C10.3431 12 9 10.6569 9 9C9 7.34315 10.3431 6 12 6C13.6569 6 15 7.34315 15 9C15 10.6569 13.6569 12 12 12ZM12 14C9.79086 14 8 15.7909 8 18C8 18.5523 8.44772 19 9 19H15C15.5523 19 16 18.5523 16 18C16 15.7909 14.2091 14 12 14Z" fill="#1877F2"/>
  <path d="M12 12C13.6569 12 15 10.6569 15 9C15 7.34315 13.6569 6 12 6C10.3431 6 9 7.34315 9 9C9 10.6569 10.3431 12 12 12Z" fill="#1877F2"/>
  <path d="M15 19H9C8.44772 19 8 18.5523 8 18C8 15.7909 9.79086 14 12 14C14.2091 14 16 15.7909 16 18C16 18.5523 15.5523 19 15 19Z" fill="#1877F2"/>
</svg>
