<svg width="72" height="72" viewBox="0 0 72 72" fill="none" xmlns="http://www.w3.org/2000/svg">
<g clip-path="url(#clip0_367_34709)">
<path opacity="0.3" d="M18.4521 11.5388L12.9506 35.926C11.3946 42.8236 10.6166 46.2725 12.276 48.8988C13.9355 51.5251 17.3843 52.3031 24.282 53.8592L53.5466 60.461" stroke="#204D34" stroke-width="5" stroke-linecap="round" stroke-linejoin="round"/>
<path opacity="0.3" d="M20.2671 37.5765L29.9809 31.4387C31.9059 30.2222 32.8685 29.6142 33.8453 29.5622C34.5363 29.5256 35.2236 29.6806 35.8319 30.0104C36.6919 30.4767 37.3 31.4391 38.5164 33.3642C39.7329 35.2893 40.341 36.2517 41.201 36.7179C41.8093 37.0479 42.4965 37.2029 43.1876 37.1661C44.1644 37.1143 45.1268 36.5061 47.0519 35.2897L58.2602 28.2076" stroke="#204D34" stroke-width="5" stroke-linecap="round" stroke-linejoin="round"/>
</g>
<defs>
<clipPath id="clip0_367_34709">
<rect width="60" height="60" fill="white" transform="translate(13.3369 0.133545) rotate(12.7126)"/>
</clipPath>
</defs>
</svg>
