<svg width="70" height="70" viewBox="0 0 70 70" fill="none" xmlns="http://www.w3.org/2000/svg">
<g opacity="0.4" clip-path="url(#clip0_367_34673)">
<path d="M41.4851 33.548C40.8669 36.944 37.6127 39.1958 34.2167 38.5775C30.8206 37.9592 28.5689 34.705 29.1872 31.3091C29.8054 27.9131 33.0595 25.6613 36.4557 26.2796C39.8516 26.8979 42.1034 30.1521 41.4851 33.548Z" stroke="#0D352C" stroke-width="5" stroke-linecap="round" stroke-linejoin="round"/>
<path d="M59.9319 36.9066L62.2035 24.4293C62.4579 23.0319 61.8904 21.6215 60.6309 20.9648C58.4433 19.8243 54.4072 18.1131 48.309 17.0029C37.0464 14.9524 33.2842 18.5301 18.3043 12.6167C16.0351 11.7209 13.4517 13.0589 13.0147 15.4591L8.52923 40.0967C8.22102 41.7897 9.11285 43.4881 10.6997 44.1536C19.8714 48.0003 25.0507 48.4783 29.8659 48.5181" stroke="#0D352C" stroke-width="5" stroke-linecap="round" stroke-linejoin="round"/>
<path d="M12.0841 20.5721C16.8835 21.4459 21.9106 18.3083 23.2012 14.3481M54.2355 19.3523C53.3222 24.369 56.7994 29.9047 61.0655 30.6814M17.6714 45.7198C18.6606 40.2864 15.0578 35.0796 9.62424 34.0904" stroke="#0D352C" stroke-width="5" stroke-linecap="round" stroke-linejoin="round"/>
<path d="M37.121 50.5413C37.121 50.5413 39.5805 50.9891 41.1445 56.356C41.1445 56.356 51.1963 45.4805 58.5887 44.2853" stroke="#0D352C" stroke-width="5" stroke-linecap="round" stroke-linejoin="round"/>
</g>
<defs>
<clipPath id="clip0_367_34673">
<rect width="60" height="60" fill="white" transform="translate(10.7471) rotate(10.3182)"/>
</clipPath>
</defs>
</svg>
