<svg width="68" height="68" viewBox="0 0 68 68" fill="none" xmlns="http://www.w3.org/2000/svg">
<g opacity="0.3" clip-path="url(#clip0_367_34699)">
<path d="M41.8169 56.2891L43.5307 41.3874M48.1875 41.9229L48.6159 38.1975M46.0453 60.5501L46.4737 56.8247M42.6738 48.8382L51.9874 49.9093M51.9874 49.9093C53.5305 50.0868 54.6376 51.4817 54.4602 53.0248L54.2459 54.8875C54.0685 56.4306 52.6736 57.5377 51.1305 57.3602L39.0228 55.9678M51.9874 49.9093C53.5305 50.0868 54.9254 48.9797 55.1028 47.4366L55.317 45.5739C55.4945 44.0308 54.3874 42.6359 52.8443 42.4585L40.7366 41.066" stroke="#0D352C" stroke-width="5" stroke-linecap="round" stroke-linejoin="round"/>
<path d="M33.5156 16.329C40.5403 17.1369 46.5363 17.8264 48.4905 20.0613C50.4447 22.2962 50.2073 24.3604 49.4729 30.7465L44.7913 27.6916" stroke="#0D352C" stroke-width="5" stroke-linecap="round" stroke-linejoin="round"/>
<path d="M31.7151 53.8691C24.6903 53.0612 18.6943 52.3716 16.7401 50.1367C14.786 47.9018 15.0234 45.8377 15.7578 39.4515L20.4394 42.5064" stroke="#0D352C" stroke-width="5" stroke-linecap="round" stroke-linejoin="round"/>
<path d="M20.3559 10.4116C16.9268 10.0173 13.9071 11.7825 13.6113 14.3544C13.3155 16.9262 15.8557 19.3309 19.2848 19.7252C22.714 20.1196 25.2541 22.5242 24.9584 25.0961C24.6626 27.668 21.6429 29.4332 18.2137 29.0388M20.3559 10.4116C23.0594 10.7225 25.2103 12.2829 25.8547 14.1896M20.3559 10.4116L20.713 7.30709M18.2137 29.0388C15.5102 28.7279 13.3594 27.1675 12.715 25.2609M18.2137 29.0388L17.8567 32.1434" stroke="#0D352C" stroke-width="5" stroke-linecap="round" stroke-linejoin="round"/>
</g>
<defs>
<clipPath id="clip0_367_34699">
<rect width="60" height="60" fill="white" transform="translate(7.62402 0.768921) rotate(6.56045)"/>
</clipPath>
</defs>
</svg>
