<svg width="708" height="200" viewBox="0 0 708 200" fill="none" xmlns="http://www.w3.org/2000/svg">
<g clip-path="url(#clip0_143_1137)">
<path d="M157.759 0H43.1466C19.5935 0 0.5 19.1025 0.5 42.6667V157.333C0.5 180.897 19.5935 200 43.1466 200H157.759C181.312 200 200.406 180.897 200.406 157.333V42.6667C200.406 19.1025 181.312 0 157.759 0Z" fill="url(#paint0_linear_143_1137)"/>
<path d="M103.913 25C131.658 25 155.708 40.8267 167.537 63.9487L166.705 64.3717L143.134 78.0067C136.294 63.1817 121.305 52.8937 103.913 52.8937C80.0664 52.8937 60.7352 72.234 60.7352 96.0913C60.7352 105.303 63.6175 113.841 68.5289 120.853L65.5963 143.56L85.5895 135.218C91.1515 137.83 97.3619 139.29 103.913 139.29C121.927 139.29 137.363 128.252 143.837 112.568L167.939 126.207L168.739 126.508C164.344 135.984 157.934 144.335 150.06 151.009L150.825 175L129.164 163.393L129.427 163.229C121.503 166.262 112.902 167.924 103.913 167.924C64.4641 167.924 32.4849 135.929 32.4849 96.462C32.4849 56.9947 64.4641 25.0001 103.913 25Z" fill="#0D352C"/>
<path d="M97.0662 116.22L92.638 114.754L94.015 110.589C87.7689 107.637 86.1064 103.007 87.7616 98.0008L88.0108 97.2478L92.705 98.8012L92.5437 99.2885C91.3279 102.966 92.2625 105.34 98.4622 107.392C102.847 108.843 104.836 108.174 105.744 105.427C106.638 102.724 106.075 101.457 101.821 99.0165L97.1095 96.3268C92.3391 93.6665 90.414 90.2768 91.9666 85.5805C93.3 81.5485 97.4237 78.7352 104.035 80.2845L105.383 76.2085L109.812 77.6742L108.435 81.8388C114.385 84.7915 115.577 89.8062 114.039 94.4582L113.863 94.9898L109.169 93.4365L109.33 92.9492C110.531 89.3162 109.567 86.8832 104.253 85.1245C99.8686 83.6735 97.6869 84.3278 96.8227 86.9418C95.9291 89.6445 96.8757 90.7932 100.657 93.0278L105.354 95.7618C110.553 98.7605 112.065 102.358 110.586 106.833C109.15 111.175 105.026 113.84 98.3993 112.188L97.0662 116.22Z" fill="#0D352C"/>
<path d="M282.324 133.947C276.183 133.947 270.923 132.61 266.545 129.936C262.167 127.234 258.798 123.479 256.438 118.672C254.107 113.865 252.941 108.29 252.941 101.947C252.941 95.6038 254.107 90.0284 256.438 85.2214C258.798 80.4144 262.167 76.6738 266.545 74.0001C270.923 71.2978 276.183 69.9468 282.324 69.9468C289.404 69.9468 295.303 71.7244 300.023 75.2801C304.742 78.8071 308.055 83.5718 309.959 89.5734L299.596 92.4321C298.402 88.4214 296.369 85.2924 293.498 83.0454C290.626 80.7698 286.902 79.6321 282.324 79.6321C278.202 79.6321 274.762 80.5564 272.004 82.4054C269.275 84.2544 267.213 86.8571 265.82 90.2135C264.455 93.5415 263.759 97.4524 263.731 101.947C263.731 106.441 264.413 110.366 265.778 113.723C267.171 117.051 269.246 119.639 272.004 121.488C274.762 123.337 278.202 124.261 282.324 124.261C286.902 124.261 290.626 123.124 293.498 120.848C296.369 118.572 298.402 115.444 299.596 111.461L309.959 114.32C308.055 120.322 304.742 125.1 300.023 128.656C295.303 132.183 289.404 133.947 282.324 133.947ZM349.902 132.667V110.48C349.902 109.029 349.802 107.422 349.602 105.659C349.402 103.895 348.932 102.203 348.196 100.581C347.483 98.9318 346.404 97.5805 344.954 96.5281C343.532 95.4758 341.599 94.9494 339.154 94.9494C337.844 94.9494 336.551 95.1628 335.272 95.5894C333.993 96.0161 332.828 96.7558 331.776 97.8081C330.752 98.8321 329.928 100.254 329.302 102.075C328.677 103.867 328.364 106.171 328.364 108.987L322.266 106.384C322.266 102.459 323.019 98.9031 324.526 95.7174C326.061 92.5318 328.307 90.0001 331.264 88.1228C334.219 86.2171 337.861 85.2641 342.182 85.2641C345.594 85.2641 348.409 85.8331 350.625 86.9708C352.844 88.1084 354.606 89.5591 355.912 91.3228C357.222 93.0864 358.188 94.9638 358.814 96.9548C359.441 98.9458 359.837 100.837 360.007 102.629C360.207 104.393 360.307 105.829 360.307 106.939V132.667H349.902ZM317.958 132.667V71.2268H327.127V103.568H328.364V132.667H317.958ZM383.036 133.947C379.708 133.947 376.892 133.321 374.59 132.069C372.288 130.789 370.539 129.097 369.346 126.992C368.18 124.887 367.597 122.569 367.597 120.037C367.597 117.819 367.967 115.828 368.706 114.064C369.446 112.272 370.582 110.736 372.118 109.456C373.654 108.148 375.643 107.081 378.089 106.256C379.934 105.659 382.097 105.118 384.569 104.635C387.071 104.151 389.773 103.71 392.672 103.312C395.6 102.885 398.659 102.43 401.841 101.947L398.176 104.037C398.202 100.852 397.493 98.5051 396.043 96.9974C394.591 95.4898 392.149 94.7361 388.707 94.7361C386.631 94.7361 384.626 95.2198 382.693 96.1868C380.761 97.1538 379.411 98.8178 378.642 101.179L369.259 98.2348C370.399 94.3378 372.558 91.2091 375.743 88.8481C378.955 86.4871 383.276 85.3068 388.707 85.3068C392.802 85.3068 396.397 85.9751 399.495 87.3121C402.624 88.6491 404.943 90.8391 406.449 93.8828C407.272 95.5041 407.771 97.1681 407.941 98.8748C408.111 100.553 408.198 102.388 408.198 104.379V132.667H399.199V122.683L400.691 124.304C398.616 127.632 396.183 130.078 393.398 131.643C390.639 133.179 387.184 133.947 383.036 133.947ZM385.082 125.755C387.414 125.755 389.403 125.342 391.052 124.517C392.702 123.692 394.008 122.683 394.977 121.488C395.97 120.293 396.64 119.17 396.98 118.117C397.519 116.809 397.819 115.316 397.876 113.637C397.963 111.931 398.003 110.551 398.003 109.499L401.161 110.437C398.059 110.921 395.404 111.348 393.185 111.717C390.966 112.087 389.063 112.443 387.471 112.784C385.878 113.097 384.472 113.452 383.249 113.851C382.053 114.277 381.044 114.775 380.221 115.344C379.395 115.913 378.755 116.567 378.302 117.307C377.875 118.046 377.662 118.914 377.662 119.909C377.662 121.047 377.945 122.057 378.515 122.939C379.081 123.792 379.908 124.475 380.987 124.987C382.097 125.499 383.463 125.755 385.082 125.755ZM445.014 132.667C441.972 133.236 438.987 133.477 436.058 133.392C433.159 133.335 430.557 132.809 428.255 131.813C425.953 130.789 424.204 129.182 423.011 126.992C421.958 125.001 421.402 122.967 421.345 120.891C421.288 118.814 421.262 116.468 421.262 113.851V73.7868H431.497V113.253C431.497 115.102 431.51 116.724 431.54 118.117C431.597 119.511 431.893 120.649 432.433 121.531C433.459 123.237 435.092 124.19 437.337 124.389C439.586 124.588 442.145 124.475 445.014 124.048V132.667ZM412.902 94.6508V86.5868H445.014V94.6508H412.902ZM476.829 132.667C473.787 133.236 470.802 133.477 467.873 133.392C464.974 133.335 462.372 132.809 460.07 131.813C457.768 130.789 456.019 129.182 454.822 126.992C453.773 125.001 453.216 122.967 453.16 120.891C453.103 118.814 453.077 116.468 453.077 113.851V73.7868H463.312V113.253C463.312 115.102 463.325 116.724 463.352 118.117C463.408 119.511 463.708 120.649 464.248 121.531C465.271 123.237 466.907 124.19 469.152 124.389C471.398 124.588 473.957 124.475 476.829 124.048V132.667ZM444.717 94.6508V86.5868H476.829V94.6508H444.717ZM506.481 133.947C501.817 133.947 497.726 132.937 494.197 130.917C490.672 128.898 487.917 126.096 485.924 122.512C483.962 118.928 482.982 114.804 482.982 110.139C482.982 105.104 483.949 100.738 485.881 97.0401C487.817 93.3138 490.502 90.4268 493.944 88.3788C497.382 86.3308 501.364 85.3068 505.885 85.3068C510.659 85.3068 514.711 86.4304 518.039 88.6775C521.394 90.8961 523.88 94.0391 525.502 98.1068C527.122 102.174 527.731 106.967 527.335 112.485H517.143V108.731C517.113 103.724 516.233 100.069 514.498 97.7654C512.765 95.4614 510.033 94.3094 506.311 94.3094C502.103 94.3094 498.975 95.6178 496.929 98.2348C494.88 100.823 493.857 104.62 493.857 109.627C493.857 114.292 494.88 117.904 496.929 120.464C498.975 123.024 501.96 124.304 505.885 124.304C508.414 124.304 510.589 123.749 512.409 122.64C514.258 121.502 515.677 119.867 516.673 117.733L526.822 120.805C525.059 124.958 522.331 128.187 518.636 130.491C514.967 132.795 510.916 133.947 506.481 133.947ZM490.616 112.485V104.72H522.304V112.485H490.616ZM535.571 132.667V86.5868H544.653V97.8081L543.547 96.3574C544.114 94.8214 544.867 93.4278 545.806 92.1761C546.772 90.8961 547.925 89.8438 549.261 89.0188C550.397 88.2508 551.65 87.6534 553.013 87.2268C554.405 86.7718 555.828 86.5014 557.277 86.4161C558.727 86.3024 560.136 86.3591 561.499 86.5868V96.1868C560.136 95.7884 558.557 95.6604 556.768 95.8028C555.005 95.9451 553.413 96.4428 551.99 97.2961C550.567 98.0641 549.401 99.0454 548.492 100.24C547.612 101.435 546.959 102.8 546.533 104.336C546.106 105.844 545.893 107.479 545.893 109.243V132.667H535.571ZM568.359 132.667V71.2268H593.734C594.33 71.2268 595.1 71.2551 596.036 71.3121C596.975 71.3404 597.842 71.4258 598.638 71.5681C602.193 72.1084 605.122 73.2891 607.424 75.1094C609.756 76.9298 611.475 79.2338 612.585 82.0214C613.721 84.7804 614.291 87.8524 614.291 91.2374C614.291 94.5938 613.721 97.6658 612.585 100.453C611.445 103.212 609.713 105.502 607.381 107.323C605.078 109.143 602.163 110.324 598.638 110.864C597.842 110.978 596.962 111.063 595.992 111.12C595.056 111.177 594.303 111.205 593.734 111.205H578.637V132.667H568.359ZM578.637 101.605H593.307C593.877 101.605 594.517 101.577 595.226 101.52C595.936 101.463 596.592 101.349 597.189 101.179C598.894 100.752 600.231 99.9985 601.197 98.9175C602.193 97.8365 602.889 96.6134 603.286 95.2481C603.712 93.8828 603.925 92.5458 603.925 91.2374C603.925 89.9291 603.712 88.5921 603.286 87.2268C602.889 85.8331 602.193 84.5958 601.197 83.5148C600.231 82.4338 598.894 81.6801 597.189 81.2534C596.592 81.0828 595.936 80.9831 595.226 80.9548C594.517 80.8978 593.877 80.8694 593.307 80.8694H578.637V101.605ZM633.268 133.947C629.94 133.947 627.124 133.321 624.822 132.069C622.52 130.789 620.771 129.097 619.578 126.992C618.412 124.887 617.829 122.569 617.829 120.037C617.829 117.819 618.199 115.828 618.938 114.064C619.678 112.272 620.814 110.736 622.35 109.456C623.886 108.148 625.875 107.081 628.321 106.256C630.166 105.659 632.329 105.118 634.801 104.635C637.303 104.151 640.005 103.71 642.904 103.312C645.832 102.885 648.891 102.43 652.073 101.947L648.408 104.037C648.434 100.852 647.725 98.5051 646.275 96.9974C644.823 95.4898 642.381 94.7361 638.939 94.7361C636.863 94.7361 634.858 95.2198 632.925 96.1868C630.993 97.1538 629.643 98.8178 628.874 101.179L619.491 98.2348C620.631 94.3378 622.79 91.2091 625.975 88.8481C629.187 86.4871 633.508 85.3068 638.939 85.3068C643.034 85.3068 646.629 85.9751 649.727 87.3121C652.856 88.6491 655.175 90.8391 656.681 93.8828C657.504 95.5041 658.003 97.1681 658.173 98.8748C658.343 100.553 658.43 102.388 658.43 104.379V132.667H649.431V122.683L650.923 124.304C648.848 127.632 646.415 130.078 643.63 131.643C640.871 133.179 637.416 133.947 633.268 133.947ZM635.314 125.755C637.646 125.755 639.635 125.342 641.285 124.517C642.934 123.692 644.24 122.683 645.209 121.488C646.202 120.293 646.872 119.17 647.212 118.117C647.751 116.809 648.051 115.316 648.108 113.637C648.195 111.931 648.235 110.551 648.235 109.499L651.393 110.437C648.291 110.921 645.636 111.348 643.417 111.717C641.198 112.087 639.295 112.443 637.703 112.784C636.11 113.097 634.704 113.452 633.481 113.851C632.285 114.277 631.276 114.775 630.453 115.344C629.627 115.913 628.987 116.567 628.534 117.307C628.107 118.046 627.894 118.914 627.894 119.909C627.894 121.047 628.177 122.057 628.747 122.939C629.313 123.792 630.14 124.475 631.219 124.987C632.329 125.499 633.695 125.755 635.314 125.755ZM671.727 153.147L680.596 128.784L680.766 135.952L660.679 86.5868H671.384L685.627 123.109H682.898L696.758 86.5868H707.037L681.362 153.147H671.727Z" fill="#0D352C"/>
</g>
<defs>
<linearGradient id="paint0_linear_143_1137" x1="-1.48409" y1="-2.66667" x2="197.685" y2="198.653" gradientUnits="userSpaceOnUse">
<stop stop-color="#5CF674"/>
<stop offset="1" stop-color="#30BE2E"/>
</linearGradient>
<clipPath id="clip0_143_1137">
<rect width="707" height="200" fill="white" transform="translate(0.5)"/>
</clipPath>
</defs>
</svg>
