<svg width="601" height="600" viewBox="0 0 601 600" fill="none" xmlns="http://www.w3.org/2000/svg">
<rect x="0.955078" width="600" height="600" rx="120" fill="url(#paint0_linear_516_34613)"/>
<path d="M302.385 86C385.66 86 457.845 133.48 493.347 202.846L490.851 204.115L420.105 245.02C399.574 200.545 354.585 169.681 302.385 169.681C230.812 169.681 172.791 227.702 172.791 299.274C172.791 326.91 181.442 352.524 196.183 373.559L187.381 441.679L247.389 416.653C264.083 424.489 282.723 428.869 302.385 428.869C356.453 428.869 402.784 395.756 422.214 348.704L494.554 389.62L496.955 390.524C483.763 418.952 464.525 444.004 440.891 464.027L443.188 536L378.173 501.18L378.963 500.688C355.181 509.786 329.365 514.771 302.385 514.771C183.983 514.771 88.0001 418.787 88 300.386C88 181.984 183.983 86.0002 302.385 86Z" fill="#0D352C"/>
<path d="M281.836 359.66L268.545 355.263L272.678 342.769C253.931 333.913 248.941 320.023 253.909 305.003L254.657 302.744L268.746 307.404L268.262 308.866C264.613 319.898 267.418 327.02 286.026 333.176C299.185 337.529 305.157 335.523 307.883 327.282C310.565 319.174 308.874 315.371 296.107 308.05L281.966 299.981C267.648 292 261.87 281.831 266.53 267.742C270.532 255.646 282.909 247.206 302.753 251.854L306.798 239.626L320.09 244.023L315.957 256.517C333.818 265.375 337.394 280.419 332.778 294.375L332.25 295.97L318.161 291.31L318.645 289.848C322.25 278.949 319.356 271.65 303.406 266.374C290.247 262.021 283.699 263.984 281.105 271.826C278.423 279.934 281.264 283.38 292.613 290.084L306.71 298.286C322.315 307.282 326.855 318.074 322.414 331.499C318.105 344.525 305.727 352.522 285.837 347.564L281.836 359.66Z" fill="#0D352C"/>
<defs>
<linearGradient id="paint0_linear_516_34613" x1="-4.99999" y1="-8.00001" x2="592.504" y2="596.241" gradientUnits="userSpaceOnUse">
<stop stop-color="#5CF674"/>
<stop offset="1" stop-color="#30BE2E"/>
</linearGradient>
</defs>
</svg>
