<svg width="707" height="200" viewBox="0 0 707 200" fill="none" xmlns="http://www.w3.org/2000/svg">
<g clip-path="url(#clip0_143_1143)">
<path d="M157.259 0H42.6466C19.0935 0 0 19.1025 0 42.6667V157.333C0 180.897 19.0935 200 42.6466 200H157.259C180.812 200 199.906 180.897 199.906 157.333V42.6667C199.906 19.1025 180.812 0 157.259 0Z" fill="url(#paint0_linear_143_1143)"/>
<path d="M103.413 25C131.158 25 155.208 40.8267 167.037 63.9487L166.205 64.3717L142.634 78.0067C135.794 63.1817 120.805 52.8937 103.413 52.8937C79.5664 52.8937 60.2352 72.234 60.2352 96.0913C60.2352 105.303 63.1175 113.841 68.0289 120.853L65.0963 143.56L85.0895 135.218C90.6515 137.83 96.8619 139.29 103.413 139.29C121.427 139.29 136.863 128.252 143.337 112.568L167.439 126.207L168.239 126.508C163.844 135.984 157.434 144.335 149.56 151.009L150.325 175L128.664 163.393L128.927 163.229C121.003 166.262 112.402 167.924 103.413 167.924C63.9641 167.924 31.9849 135.929 31.9849 96.462C31.9849 56.9947 63.9641 25.0001 103.413 25Z" fill="#173F35"/>
<path d="M96.5662 116.22L92.138 114.754L93.515 110.589C87.2689 107.637 85.6064 103.007 87.2616 98.0008L87.5108 97.2478L92.205 98.8012L92.0437 99.2885C90.8279 102.966 91.7625 105.34 97.9622 107.392C102.347 108.843 104.336 108.174 105.244 105.427C106.138 102.724 105.575 101.457 101.321 99.0165L96.6095 96.3268C91.8391 93.6665 89.914 90.2768 91.4666 85.5805C92.8 81.5485 96.9237 78.7352 103.535 80.2845L104.883 76.2085L109.312 77.6742L107.935 81.8388C113.885 84.7915 115.077 89.8062 113.539 94.4582L113.363 94.9898L108.669 93.4365L108.83 92.9492C110.031 89.3162 109.067 86.8832 103.753 85.1245C99.3686 83.6735 97.1869 84.3278 96.3227 86.9418C95.4291 89.6445 96.3757 90.7932 100.157 93.0278L104.854 95.7618C110.053 98.7605 111.565 102.358 110.086 106.833C108.65 111.175 104.526 113.84 97.8993 112.188L96.5662 116.22Z" fill="#173F35"/>
<path d="M281.824 133.947C275.683 133.947 270.423 132.61 266.045 129.936C261.667 127.234 258.298 123.479 255.938 118.672C253.607 113.865 252.441 108.29 252.441 101.947C252.441 95.6038 253.607 90.0284 255.938 85.2214C258.298 80.4144 261.667 76.6738 266.045 74.0001C270.423 71.2978 275.683 69.9468 281.824 69.9468C288.904 69.9468 294.803 71.7244 299.523 75.2801C304.242 78.8071 307.555 83.5718 309.459 89.5734L299.096 92.4321C297.902 88.4214 295.869 85.2924 292.998 83.0454C290.126 80.7698 286.402 79.6321 281.824 79.6321C277.702 79.6321 274.262 80.5564 271.504 82.4054C268.775 84.2544 266.713 86.8571 265.32 90.2135C263.955 93.5415 263.259 97.4524 263.231 101.947C263.231 106.441 263.913 110.366 265.278 113.723C266.671 117.051 268.746 119.639 271.504 121.488C274.262 123.337 277.702 124.261 281.824 124.261C286.402 124.261 290.126 123.124 292.998 120.848C295.869 118.572 297.902 115.444 299.096 111.461L309.459 114.32C307.555 120.322 304.242 125.1 299.523 128.656C294.803 132.183 288.904 133.947 281.824 133.947ZM349.402 132.667V110.48C349.402 109.029 349.302 107.422 349.102 105.659C348.902 103.895 348.432 102.203 347.696 100.581C346.983 98.9318 345.904 97.5805 344.454 96.5281C343.032 95.4758 341.099 94.9494 338.654 94.9494C337.344 94.9494 336.051 95.1628 334.772 95.5894C333.493 96.0161 332.328 96.7558 331.276 97.8081C330.252 98.8321 329.428 100.254 328.802 102.075C328.177 103.867 327.864 106.171 327.864 108.987L321.766 106.384C321.766 102.459 322.519 98.9031 324.026 95.7174C325.561 92.5318 327.807 90.0001 330.764 88.1228C333.719 86.2171 337.361 85.2641 341.682 85.2641C345.094 85.2641 347.909 85.8331 350.125 86.9708C352.344 88.1084 354.106 89.5591 355.412 91.3228C356.722 93.0864 357.688 94.9638 358.314 96.9548C358.941 98.9458 359.337 100.837 359.507 102.629C359.707 104.393 359.807 105.829 359.807 106.939V132.667H349.402ZM317.458 132.667V71.2268H326.627V103.568H327.864V132.667H317.458ZM382.536 133.947C379.208 133.947 376.392 133.321 374.09 132.069C371.788 130.789 370.039 129.097 368.846 126.992C367.68 124.887 367.097 122.569 367.097 120.037C367.097 117.819 367.467 115.828 368.206 114.064C368.946 112.272 370.082 110.736 371.618 109.456C373.154 108.148 375.143 107.081 377.589 106.256C379.434 105.659 381.597 105.118 384.069 104.635C386.571 104.151 389.273 103.71 392.172 103.312C395.1 102.885 398.159 102.43 401.341 101.947L397.676 104.037C397.702 100.852 396.993 98.5051 395.543 96.9974C394.091 95.4898 391.649 94.7361 388.207 94.7361C386.131 94.7361 384.126 95.2198 382.193 96.1868C380.261 97.1538 378.911 98.8178 378.142 101.179L368.759 98.2348C369.899 94.3378 372.058 91.2091 375.243 88.8481C378.455 86.4871 382.776 85.3068 388.207 85.3068C392.302 85.3068 395.897 85.9751 398.995 87.3121C402.124 88.6491 404.443 90.8391 405.949 93.8828C406.772 95.5041 407.271 97.1681 407.441 98.8748C407.611 100.553 407.698 102.388 407.698 104.379V132.667H398.699V122.683L400.191 124.304C398.116 127.632 395.683 130.078 392.898 131.643C390.139 133.179 386.684 133.947 382.536 133.947ZM384.582 125.755C386.914 125.755 388.903 125.342 390.552 124.517C392.202 123.692 393.508 122.683 394.477 121.488C395.47 120.293 396.14 119.17 396.48 118.117C397.019 116.809 397.319 115.316 397.376 113.637C397.463 111.931 397.503 110.551 397.503 109.499L400.661 110.437C397.559 110.921 394.904 111.348 392.685 111.717C390.466 112.087 388.563 112.443 386.971 112.784C385.378 113.097 383.972 113.452 382.749 113.851C381.553 114.277 380.544 114.775 379.721 115.344C378.895 115.913 378.255 116.567 377.802 117.307C377.375 118.046 377.162 118.914 377.162 119.909C377.162 121.047 377.445 122.057 378.015 122.939C378.581 123.792 379.408 124.475 380.487 124.987C381.597 125.499 382.963 125.755 384.582 125.755ZM444.514 132.667C441.472 133.236 438.487 133.477 435.558 133.392C432.659 133.335 430.057 132.809 427.755 131.813C425.453 130.789 423.704 129.182 422.511 126.992C421.458 125.001 420.902 122.967 420.845 120.891C420.788 118.814 420.762 116.468 420.762 113.851V73.7868H430.997V113.253C430.997 115.102 431.01 116.724 431.04 118.117C431.097 119.511 431.393 120.649 431.933 121.531C432.959 123.237 434.592 124.19 436.837 124.389C439.086 124.588 441.645 124.475 444.514 124.048V132.667ZM412.402 94.6508V86.5868H444.514V94.6508H412.402ZM476.329 132.667C473.287 133.236 470.302 133.477 467.373 133.392C464.474 133.335 461.872 132.809 459.57 131.813C457.268 130.789 455.519 129.182 454.322 126.992C453.273 125.001 452.716 122.967 452.66 120.891C452.603 118.814 452.577 116.468 452.577 113.851V73.7868H462.812V113.253C462.812 115.102 462.825 116.724 462.852 118.117C462.908 119.511 463.208 120.649 463.748 121.531C464.771 123.237 466.407 124.19 468.652 124.389C470.898 124.588 473.457 124.475 476.329 124.048V132.667ZM444.217 94.6508V86.5868H476.329V94.6508H444.217ZM505.981 133.947C501.317 133.947 497.226 132.937 493.697 130.917C490.172 128.898 487.417 126.096 485.424 122.512C483.462 118.928 482.482 114.804 482.482 110.139C482.482 105.104 483.449 100.738 485.381 97.0401C487.317 93.3138 490.002 90.4268 493.444 88.3788C496.882 86.3308 500.864 85.3068 505.385 85.3068C510.159 85.3068 514.211 86.4304 517.539 88.6775C520.894 90.8961 523.38 94.0391 525.002 98.1068C526.622 102.174 527.231 106.967 526.835 112.485H516.643V108.731C516.613 103.724 515.733 100.069 513.998 97.7654C512.265 95.4614 509.533 94.3094 505.811 94.3094C501.603 94.3094 498.475 95.6178 496.429 98.2348C494.38 100.823 493.357 104.62 493.357 109.627C493.357 114.292 494.38 117.904 496.429 120.464C498.475 123.024 501.46 124.304 505.385 124.304C507.914 124.304 510.089 123.749 511.909 122.64C513.758 121.502 515.177 119.867 516.173 117.733L526.322 120.805C524.559 124.958 521.831 128.187 518.136 130.491C514.467 132.795 510.416 133.947 505.981 133.947ZM490.116 112.485V104.72H521.804V112.485H490.116ZM535.071 132.667V86.5868H544.153V97.8081L543.047 96.3574C543.614 94.8214 544.367 93.4278 545.306 92.1761C546.272 90.8961 547.425 89.8438 548.761 89.0188C549.897 88.2508 551.15 87.6534 552.513 87.2268C553.905 86.7718 555.328 86.5014 556.777 86.4161C558.227 86.3024 559.636 86.3591 560.999 86.5868V96.1868C559.636 95.7884 558.057 95.6604 556.268 95.8028C554.505 95.9451 552.913 96.4428 551.49 97.2961C550.067 98.0641 548.901 99.0454 547.992 100.24C547.112 101.435 546.459 102.8 546.033 104.336C545.606 105.844 545.393 107.479 545.393 109.243V132.667H535.071ZM567.859 132.667V71.2268H593.234C593.83 71.2268 594.6 71.2551 595.536 71.3121C596.475 71.3404 597.342 71.4258 598.138 71.5681C601.693 72.1084 604.622 73.2891 606.924 75.1094C609.256 76.9298 610.975 79.2338 612.085 82.0214C613.221 84.7804 613.791 87.8524 613.791 91.2374C613.791 94.5938 613.221 97.6658 612.085 100.453C610.945 103.212 609.213 105.502 606.88 107.323C604.578 109.143 601.663 110.324 598.138 110.864C597.342 110.978 596.462 111.063 595.492 111.12C594.556 111.177 593.803 111.205 593.234 111.205H578.137V132.667H567.859ZM578.137 101.605H592.807C593.377 101.605 594.017 101.577 594.726 101.52C595.436 101.463 596.092 101.349 596.689 101.179C598.394 100.752 599.731 99.9985 600.697 98.9174C601.693 97.8364 602.389 96.6134 602.786 95.2481C603.212 93.8828 603.425 92.5458 603.425 91.2374C603.425 89.9291 603.212 88.5921 602.786 87.2268C602.389 85.8331 601.693 84.5958 600.697 83.5148C599.731 82.4338 598.394 81.6801 596.689 81.2534C596.092 81.0828 595.436 80.9831 594.726 80.9548C594.017 80.8978 593.377 80.8694 592.807 80.8694H578.137V101.605ZM632.768 133.947C629.44 133.947 626.624 133.321 624.322 132.069C622.02 130.789 620.271 129.097 619.078 126.992C617.912 124.887 617.329 122.569 617.329 120.037C617.329 117.819 617.699 115.828 618.438 114.064C619.178 112.272 620.314 110.736 621.85 109.456C623.386 108.148 625.375 107.081 627.821 106.256C629.666 105.659 631.829 105.118 634.301 104.635C636.803 104.151 639.505 103.71 642.404 103.312C645.332 102.885 648.391 102.43 651.573 101.947L647.908 104.037C647.934 100.852 647.225 98.5051 645.775 96.9974C644.323 95.4898 641.881 94.7361 638.439 94.7361C636.363 94.7361 634.358 95.2198 632.425 96.1868C630.493 97.1538 629.143 98.8178 628.374 101.179L618.991 98.2348C620.131 94.3378 622.29 91.2091 625.475 88.8481C628.687 86.4871 633.008 85.3068 638.439 85.3068C642.534 85.3068 646.129 85.9751 649.227 87.3121C652.356 88.6491 654.675 90.8391 656.181 93.8828C657.004 95.5041 657.503 97.1681 657.673 98.8748C657.843 100.553 657.93 102.388 657.93 104.379V132.667H648.931V122.683L650.423 124.304C648.348 127.632 645.915 130.078 643.13 131.643C640.371 133.179 636.916 133.947 632.768 133.947ZM634.814 125.755C637.146 125.755 639.135 125.342 640.785 124.517C642.434 123.692 643.74 122.683 644.709 121.488C645.702 120.293 646.372 119.17 646.712 118.117C647.251 116.809 647.551 115.316 647.608 113.637C647.695 111.931 647.735 110.551 647.735 109.499L650.893 110.437C647.791 110.921 645.136 111.348 642.917 111.717C640.698 112.087 638.795 112.443 637.203 112.784C635.61 113.097 634.204 113.452 632.981 113.851C631.785 114.277 630.776 114.775 629.953 115.344C629.127 115.913 628.487 116.567 628.034 117.307C627.607 118.046 627.394 118.914 627.394 119.909C627.394 121.047 627.677 122.057 628.247 122.939C628.813 123.792 629.64 124.475 630.719 124.987C631.829 125.499 633.195 125.755 634.814 125.755ZM671.227 153.147L680.096 128.784L680.266 135.952L660.179 86.5868H670.884L685.127 123.109H682.398L696.258 86.5868H706.537L680.862 153.147H671.227Z" fill="#F1F5F1"/>
</g>
<defs>
<linearGradient id="paint0_linear_143_1143" x1="-1.98409" y1="-2.66667" x2="197.185" y2="198.653" gradientUnits="userSpaceOnUse">
<stop stop-color="#5CF674"/>
<stop offset="1" stop-color="#30BE2E"/>
</linearGradient>
<clipPath id="clip0_143_1143">
<rect width="707" height="200" fill="white"/>
</clipPath>
</defs>
</svg>
